<svg id="Layer_1" data-name="Layer 1" xmlns="http://www.w3.org/2000/svg" width="1456.15" height="1244.55" viewBox="0 0 1456.15 1244.55"><defs><style>.cls-1{fill:#dfdfea;}</style></defs><path id="Path_6" data-name="Path 6" class="cls-1" d="M16.55,678.31C1.84,690.06-5.29,716.86,4.52,736c8.75,17,28,22.19,38.75,25.08,29.35,7.87,49.38-2,67.32-3.56,53.31-4.52,105.46,30.17,138.17,75.36s49.61,99.78,65.8,153.21,32.81,108.05,65.06,153.58c46.07,65,123.46,105.6,200.08,104.88,86.54-.82,164.32-50.6,225.84-111.13s111.34-132.76,172.58-193.58c82-81.4,182.28-140.34,272.21-212.35s172.71-163,199.12-278.41c18.68-81.65-.54-183.09-72.17-227.1-68.63-42.16-153.28-16.26-231.85-17.19-68.55-.8-137.51-23.91-194.66-65.22-48.7-35.21-88.94-83.13-141.22-112.11C718.62-23,598.06-2.15,532.37,75.32c-136.86,161.41,6.26,415.17-148.95,538.79C342.15,647,206.05,726.75,101.54,686.82,83.27,679.84,40.25,659.37,16.55,678.31Z"/></svg>