<svg id="Layer_1" data-name="Layer 1" xmlns="http://www.w3.org/2000/svg" width="1040.22" height="1385.28" viewBox="0 0 1040.22 1385.28"><defs><style>.cls-1{fill:#dfdfea;}</style></defs><path id="Path_40" data-name="Path 40" class="cls-1" d="M728.91,33.74C725.07,16.57,705.48-.41,685.38,0c-17.9.36-30.1,14.4-37,22.27-18.64,21.44-18.53,42.32-24.6,58-18,46.64-68.56,76.24-119.92,85.2s-104.17.8-155.69-7.49S244,141.29,192.53,149.73C119,161.8,53.21,210.19,22.42,274.87c-34.77,73-24.82,158.79.82,235.27s65.92,147.94,91.93,224.32C150,836.68,158.38,945.11,182,1050.17s66.17,211.89,152.32,281.38c60.94,49.15,154,74.57,220.37,32.43,63.55-40.38,76.47-122.12,109.44-187.74,28.77-57.27,76.44-105.74,134.57-136.82,49.54-26.49,106.29-40.67,152.06-72.71,79.62-55.74,111.52-165.55,73.36-252.49C944.63,533.1,672.77,549.35,632.52,368.29c-10.71-48.14-22-195.17,54.42-266.62C700.29,89.18,735.11,61.42,728.91,33.74Z"/></svg>