<svg id="Layer_1" data-name="Layer 1" xmlns="http://www.w3.org/2000/svg" width="2834" height="4736.11" viewBox="0 0 2834 4736.11"><defs><style>.cls-1,.cls-2{fill:#576da2;isolation:isolate;}.cls-1{opacity:0.65;}.cls-2{opacity:0.65;}</style></defs><path class="cls-1" d="M2833.55,2929.73c0-25-4-51-1-77,2-18-1-35,1-52v2c2-171.56-5-344.12,0-515.68a5,5,0,0,0-2.55-2.25c-55.16-15.37-115.33-20.52-176.38-18.63-160.94,5-333.55,52.54-494.8,58.54-215.83,8-405.9-58.44-611.2-82.07s-439.23.94-671.11,170.84c-164,120.18-332.8,344.37-353.75,553.31-20.09,200.19,96.94,301,160.11,441.38,55.12,122.49,70,287.53,42,465.87-23.88,152-77.87,312.87-87.47,459.49-16.7,255,120.72,428.73,316,399.34,406.75-61.24,750.47-789.77,1103.6-747.74,93.89,11.17,351.43,101.73,365,361.06,2.37,45.33.64,159.62,54.68,165.93,33.53,3.9,88.19-33.76,114.91-87,23.79-47.39,17.3-91,13.66-115.41-9.92-66.56-44.47-83.33-62-112.13-52.24-85.59-32.16-242.69,23.08-385.16s140.65-274.72,224.53-403.51q19.61-30.09,39.22-60.44a29.32,29.32,0,0,0,2.6-5.42C2833.6,3205.3,2834.53,3067.51,2833.55,2929.73Z"/><path class="cls-2" d="M1627.68,1020.33c-15.51-150.91-93.72-347.75-215.56-447.07-116.73-95.17-221.16-64.63-330.75-83.69C985.74,473,878.22,413.88,777.87,322.86,692.34,245.28,612.11,145.44,524.79,78.91,372.88-36.85,216-23.86,164.11,108.77,56,385.1,383.63,898.44,230.83,1099c-30,39.43-119,116.11-230.28,113.47v.34l-.09,20.6c.06,7.19.12,14.46-.1,21.72L0,1336l.38.49c53.22,30.66,108.72,85.91,154.5,148.18,68.37,93,119.58,200.38,169.2,305.39S424.52,2002.46,492.43,2096c97,133.63,225.12,227.69,331.17,243.19,119.78,17.49,202.54-59.9,257.24-161.27s87.23-227.57,141.41-329.56c72.52-136.51,181.91-226.32,270.25-343.25S1649.61,1233.68,1627.68,1020.33Z"/></svg>