<svg id="Layer_1" data-name="Layer 1" xmlns="http://www.w3.org/2000/svg" width="235.61" height="305.51" viewBox="0 0 235.61 305.51"><defs><style>.cls-1{fill:none;stroke:#182c5e;stroke-miterlimit:10;stroke-width:3px;}</style></defs><path class="cls-1" d="M86.55,273.43v25.79A4.8,4.8,0,0,1,81.76,304H68.34a4.8,4.8,0,0,1-4.79-4.79V243.15a15.4,15.4,0,0,1,12.08,15.07v.23A15.07,15.07,0,0,0,86.55,273.43Z"/><path class="cls-1" d="M173,242.75v56.47a4.8,4.8,0,0,1-4.79,4.79H154.77a4.81,4.81,0,0,1-4.79-4.79V273.17a15.05,15.05,0,0,0,10.53-14.61v-.33A15.44,15.44,0,0,1,173,242.75Z"/><path class="cls-1" d="M234.11,184.38c0,7.92-5.93,15.76-15.69,15.63h-.23A15.45,15.45,0,0,0,205,223.43a15.45,15.45,0,0,1,2.32,8c0,10.92-12.32,19.85-23.45,13.21a15.27,15.27,0,0,0-7.88-2.21,15.7,15.7,0,0,0-3,.29,15.44,15.44,0,0,0-12.47,15.48v.33a15.44,15.44,0,0,1-28.92,7.5,15.44,15.44,0,0,0-27,.07,14.94,14.94,0,0,1-13.33,8,16,16,0,0,1-4.71-.71,15.07,15.07,0,0,1-10.92-15v-.23a15.4,15.4,0,0,0-12.08-15.07A15.18,15.18,0,0,0,52.21,245a15.39,15.39,0,0,1-8,2.32C33.26,247.33,24.33,235,31,223.88a15.42,15.42,0,0,0-13.56-23.35h-.34c-15.81,0-21.42-21.14-7.49-28.92a15.44,15.44,0,0,0-.07-27,14.94,14.94,0,0,1-8-13.33c0-7.93,5.93-15.77,15.69-15.63h.23A15.44,15.44,0,0,0,30.63,92.23a15.39,15.39,0,0,1-2.32-8c0-9.4,9.11-17.32,18.74-15.13,1.21,2.59,4.37,4.68,8.89,4.68h.23c5.61-.08,9.66,3.31,9.66,7a5.69,5.69,0,0,1-1.35,3.58,5.28,5.28,0,0,0-.89,5.82A54.09,54.09,0,0,0,54.26,101c-7.94,12-10.21,24.44-5.08,27.84,4.39,2.91,12.78-1.76,20.09-10.68,4.53,30.25,25.13,53.09,49.85,53.09,25.33,0,46.33-24,50.15-55.36,7.68,10.37,17.11,16.1,21.86,13,5.13-3.4,2.86-15.87-5.08-27.84-4.12-6.22-9-11.08-13.38-13.84a6,6,0,0,0-1.38-3.07c-3.81-4.68.76-10.64,8.1-10.64h.15c4.72,0,8-2.16,9.16-4.86a14.17,14.17,0,0,1,2.73-.26c10.93,0,19.86,12.32,13.22,23.45a15.28,15.28,0,0,0-2.21,7.89,15.47,15.47,0,0,0,15.77,15.46h.34c15.8,0,21.41,21.14,7.48,28.92a15.45,15.45,0,0,0,.07,27A14.94,14.94,0,0,1,234.11,184.38Z"/><path class="cls-1" d="M69.27,118.16c-7.31,8.92-15.7,13.59-20.09,10.68-5.13-3.4-2.86-15.87,5.08-27.84a54.09,54.09,0,0,1,9.33-10.82,8.75,8.75,0,0,0,5.48,4.29,85.25,85.25,0,0,0,.2,23.69Z"/><path class="cls-1" d="M191.13,128.84c-4.75,3.15-14.18-2.58-21.86-13A85.42,85.42,0,0,0,169,93.25c2.24-1.31,3.72-3.33,3.72-5.52a3.64,3.64,0,0,0,0-.57c4.42,2.76,9.26,7.62,13.38,13.84C194,113,196.26,125.44,191.13,128.84Z"/><path class="cls-1" d="M191.13,128.84c-4.75,3.15-14.18-2.58-21.86-13A85.42,85.42,0,0,0,169,93.25c2.24-1.31,3.72-3.33,3.72-5.52a3.64,3.64,0,0,0,0-.57c4.42,2.76,9.26,7.62,13.38,13.84C194,113,196.26,125.44,191.13,128.84Z"/><path class="cls-1" d="M69.27,118.16c-7.31,8.92-15.7,13.59-20.09,10.68-5.13-3.4-2.86-15.87,5.08-27.84a54.09,54.09,0,0,1,9.33-10.82,8.75,8.75,0,0,0,5.48,4.29,85.25,85.25,0,0,0,.2,23.69Z"/><path class="cls-1" d="M169.89,105.61a84.59,84.59,0,0,1-.62,10.28c-3.82,31.37-24.82,55.36-50.15,55.36-24.72,0-45.32-22.84-49.85-53.09a85.25,85.25,0,0,1-.2-23.69,11.83,11.83,0,0,0,3.51.53,12.09,12.09,0,0,0,4.93-1,11.73,11.73,0,0,1,3.13-.89c5.57-.81,11.24,2.3,11.24,6.87V100c-.09,4.43,4.71,7.12,9.57,7.12a10.08,10.08,0,0,0,8.2-3.64c3.6-4.82,12.95-4.84,16.57,0C131,109.8,144,107.25,144,100.06v-.15c-.1-4.16,4.5-7.17,9.51-7.17a12.09,12.09,0,0,1,4.83,1,11.63,11.63,0,0,0,1.46.53,11.82,11.82,0,0,0,9.22-1A84.8,84.8,0,0,1,169.89,105.61Z"/><path class="cls-1" d="M189.18,66.34a5.55,5.55,0,0,1-.48,2.25c-1.17,2.7-4.44,4.9-9.16,4.86h-.15c-7.34,0-11.91,6-8.1,10.64a6,6,0,0,1,1.38,3.07,3.64,3.64,0,0,1,0,.57c0,2.19-1.48,4.21-3.72,5.52a11.82,11.82,0,0,1-9.22,1,11.63,11.63,0,0,1-1.46-.53,12.09,12.09,0,0,0-4.83-1c-5,0-9.61,3-9.51,7.17v.15c0,7.19-13,9.74-17.75,3.42-3.62-4.8-13-4.78-16.57,0a10.08,10.08,0,0,1-8.2,3.64c-4.86,0-9.66-2.69-9.57-7.12v-.11c0-4.57-5.67-7.68-11.24-6.87a11.73,11.73,0,0,0-3.13.89,12.09,12.09,0,0,1-4.93,1,11.83,11.83,0,0,1-3.51-.53,8.75,8.75,0,0,1-5.48-4.29,5.28,5.28,0,0,1,.89-5.82,5.69,5.69,0,0,0,1.35-3.58c0-3.71-4-7.1-9.66-7h-.23c-4.52,0-7.68-2.09-8.89-4.68-1.38-3-.23-6.56,4.33-8.45,3.24-1.34,4.86-3.73,4.86-6.12s-1.64-4.81-4.9-6.14-4.9-3.72-4.9-6c0-3.6,3.64-7.17,9.63-7.11h.13c7.36,0,11.94-6,8.13-10.64a5.76,5.76,0,0,1-1.42-3.64c0-5,7.57-9,14.4-6a12,12,0,0,0,4.83,1c5,0,9.61-3,9.5-7.16V8.61c0-7.19,13-9.75,17.75-3.42,1.81,2.39,5,3.59,8.27,3.59s6.5-1.21,8.31-3.63a10.05,10.05,0,0,1,8.2-3.65c4.85,0,9.65,2.69,9.57,7.12v.11c0,5.44,8,8.81,14.36,6A12.15,12.15,0,0,1,163,13.66c6.7,0,12.17,5.59,8.09,10.64a5.69,5.69,0,0,0-1.35,3.58c0,3.71,4.05,7.1,9.67,7h.23c9.68,0,13.1,9.59,4.56,13.13-3.24,1.34-4.86,3.74-4.86,6.13s1.63,4.8,4.89,6.13S189.18,64,189.18,66.34Z"/><path class="cls-1" d="M150.76,117.94a15.53,15.53,0,0,1-23.17,4.81"/><line class="cls-1" x1="140.29" y1="125.7" x2="142.13" y2="134.59"/><line class="cls-1" x1="129.34" y1="123.9" x2="125.01" y2="131.36"/><line class="cls-1" x1="149.69" y1="119.68" x2="156.63" y2="124.8"/><line class="cls-1" x1="134.78" y1="125.8" x2="133.05" y2="134.54"/><line class="cls-1" x1="145.55" y1="123.56" x2="150.62" y2="130.89"/><path class="cls-1" d="M87.36,117.94a15.52,15.52,0,0,0,23.16,4.81"/><line class="cls-1" x1="97.83" y1="125.7" x2="95.98" y2="134.59"/><line class="cls-1" x1="108.77" y1="123.9" x2="113.1" y2="131.36"/><line class="cls-1" x1="88.43" y1="119.68" x2="81.49" y2="124.8"/><line class="cls-1" x1="103.33" y1="125.8" x2="105.07" y2="134.54"/><line class="cls-1" x1="92.57" y1="123.56" x2="87.5" y2="130.89"/></svg>