<svg id="Layer_0_Threshold_1_Image" data-name="Layer 0 + Threshold 1 Image" xmlns="http://www.w3.org/2000/svg" width="621.31" height="757.36" viewBox="0 0 621.31 757.36"><path d="M520.14,282.09c-4.28-8.68-5.89-18.09-6.87-27.54-1.33-12.91-1.19-26-3.33-38.77-1.65-9.8-5.9-19.15-8.92-28.72-4.32-13.7-14.95-22.7-24.73-32.05-5.92-5.66-13.71-9.29-20.31-14.31-7-5.34-13.71-11.17-20.42-16.92a112.11,112.11,0,0,1-10.84-10.16c-6.42-7.16-12.94-14.31-18.63-22.05-7.89-10.75-14.8-22.21-22.59-33-7.45-10.32-15.37-20.34-25.76-28a25.05,25.05,0,0,0-8-3.64c-7.27-2-14.57-4.75-22-5.3-9.2-.69-18.67-3.4-27.8,2.05-5.78,3.45-12.44,5.45-18.77,7.92A68.49,68.49,0,0,1,257,36.09c-10.25.12-20.49.5-30.74.64-1.81,0-4.49.11-5.29-.94-4.48-5.93-10.08-2.67-14.41-1.17-8.26,2.86-16.13,7-23.92,11.1s-10.28,12-13.21,19.51c-3.34,8.58-6.33,17.31-10.18,25.66-2.69,5.83-8.34,9-13.56,12.62-9.33,6.55-19.78,10.14-30.29,13.83-4.08,1.43-8.06,3.19-12.16,4.55-8,2.64-10.84,10-14.76,16.22-5.94,9.35-10.93,19.37-13,30.33-1,5.16-.5,10.76.19,16.05a94.93,94.93,0,0,0,3.86,15.94c3.2,10.16,4.45,20.19,1.33,30.71-1.74,5.89-2.05,12.2-3.18,18.29-1.48,7.92-3.49,15.75-4.65,23.72-2.8,19.27-1.7,38.22,5.89,56.45.76,1.8,1.53,3.6,2.2,5.44a19.88,19.88,0,0,0,3,6c1.88-4.51,4.34-8.87,5.52-13.55,2.41-9.52,7.61-17.35,13.75-24.62,10.78-12.74,17.19-27.73,23.51-42.93a129.66,129.66,0,0,1,13.45-24A95.36,95.36,0,0,1,157.08,217a54.44,54.44,0,0,1,18.66-9.74,234.26,234.26,0,0,1,34.38-7.81c15.5-2.24,25.64-12.07,35.82-22.42,5.83-5.92,8.61-13.41,10.27-21,2.65-12.11,4.08-24.5,6-36.78a24.88,24.88,0,0,0-.06-4.31c6.46-3.63,10.12-2.07,12.35,4.62,6.89,20.71,13.35,41.71,26.54,59.54,8.42,11.37,17.53,21.93,30.19,29.47,7.62,4.55,15.27,6.37,23.56,7.41,11.3,1.41,20.89,6.61,30.37,12.63,16.63,10.56,24.32,27.56,33.21,43.85,5.2,9.54,10.31,19.24,16.7,28,4,5.42,9.93,9.57,15.55,13.53,9.23,6.5,18.53,13,25.4,22a38.94,38.94,0,0,1,8.24,20c.46,4.79,2.21,9.44,3.17,13.29,7.88,1,15.07,1.53,22.14,2.77,10.23,1.8,15.21,10.14,19.52,18.11,2.81,5.19,3.89,11.65,4.37,17.65.45,5.67-1,11.48-1.4,17.25-.12,1.82.54,3.7.88,5.54.26,1.41,1.26,3.58.73,4.05a8.06,8.06,0,0,1-5,2,8.75,8.75,0,0,1-4.9-2c-7.49-6-15.22-11.75-22.14-18.34-7.95-7.57-13-17.37-16.62-27.54-4.4-12.44-6.94-25.55-11.46-37.94a42.92,42.92,0,0,0-10.83-16c-6.93-6.47-15.3-11.36-22.65-17.4a88.37,88.37,0,0,1-11.27-11.84,85,85,0,0,1-9.21-12.7c-6.41-11.45-11.89-23.45-18.65-34.7C391,241.51,377,229.54,357.88,224.57c-6.1-1.58-12.74-1.7-18.43-4.12-8.28-3.52-16.58-7.66-23.7-13.07-13.19-10-22.24-23.77-30.12-38.19-3.68-6.74-7.34-13.52-10.35-20.57-2.39-5.61-3.77-11.65-6.85-17.57-.26,1.65-.43,3.32-.79,4.95-2.35,10.85-4.6,21.73-7.17,32.54-2,8.48-8,14.5-14,20.25-4.74,4.57-9.91,9.05-15.66,12.13s-12.56,4.93-19.08,6.61c-11.93,3.08-24.21,5-35.94,8.64-11.5,3.61-19.19,12.75-26.47,22-7.52,9.53-12.72,20.21-17.39,31.43-7.33,17.59-16.42,34.31-29.21,48.82a24.08,24.08,0,0,0-5.14,11.76c-1,6.51-4.8,11.31-7.79,16.69-.82,1.49-1.42,3.83-.84,5.25,4.78,11.6,4.87,23.8,4.48,35.95-.19,5.87-1.86,11.69-2.87,17.53C89,414.63,87.33,423.66,86,432.75a5.33,5.33,0,0,0,2.5,4.37c7.77,3.06,14.64,7,20.22,13.57,3.26,3.83,8.32,4.56,13.59,3.63,11.72-2.08,23.5-3.87,35.27-5.64,14-2.1,28.15-3.53,42.39-2,6.35.68,12.81.71,19.07,1.87,7.83,1.44,15.41,4.57,23.27,5.43,7.23.79,14.73-.16,22-.91,5.07-.52,10-2,15.2-3.11a85.25,85.25,0,0,1-17.19-34.37c-.78-3.25-1.28-6.57-2.1-9.81-2.18-8.64-8.61-11.9-16.6-14.28-6.27-1.87-11.71-6.57-18-8.41-9-2.63-18.37-4.11-27.67-5.52-17-2.57-33.05,4-49.59,5.74-13.89,1.47-28.35,2.17-40.34-7.64-1.14-.94-2.1-4.22-1.61-4.65,2-1.72,3.7-5.63,7.26-3.05,5,3.6,10.3,6.68,16.43,6.88,8.24.26,16.47.89,24.79-1a255.6,255.6,0,0,1,32.38-5.32,96.55,96.55,0,0,1,39.38,4.63c6.35,2.09,12,6.16,18.14,9,2.78,1.3,6,1.65,8.92,2.67,7.11,2.46,9.95,8.88,12.35,15,2.32,5.93,3,12.47,4.76,18.66a45,45,0,0,0,3.6,8.54c4.61,8.76,9.58,17.31,17.62,23.5a6.47,6.47,0,0,0,2.74.93c8.06,1.43,16.11,2.95,24.2,4.16,14.43,2.16,28.84,4.59,43.57,2.47,14.57-2.1,29.26-3.07,43.92-1.1,7.37,1,15.24,1.58,21.8,4.67,10.6,5,18.08,13.57,18.66,26.18.43,9.54-6.64,13.58-13.86,16.72a59.71,59.71,0,0,1-30.61,4.79c-5.81-.61-11.91,2.25-17.94,2.64-7.56.48-15.2-.21-22.79.06-4.87.18-8.52,2.75-11.27,7a31.76,31.76,0,0,1-16.23,13.12,60.25,60.25,0,0,1-.57,6.74c-1.75,9.14-1.11,10.57,7.12,15,4.24,2.3,8.52,4.53,12.68,7,8.1,4.76,8.75,13.08,9.9,21.15,1.23,8.63-3.42,15.78-6,23.41-1.48,4.38-3.83,8.47-5.78,12.69.48,0,1.06,2.18,1.54,2.16,1.23,2.21,2.09,2.43,3.65,4.38,4.28,5.32,8.69,10.63,16.05,11.79,9.7,1.53,19.49,4.64,29.09,4.15,14.87-.76,27.86,5,41.53,8.56,11.32,3,22.62,6,33.78,9.53,6.76,2.13,13.1,5.65,19.88,7.71a99.68,99.68,0,0,0,17.57,3.16c7.66.86,15.4,1.87,23.07,1.6,14.07-.5,28.25-1.87,39.88-11a282.8,282.8,0,0,0,23.6-20.84c5.36-5.26,11.33-10.8,14.2-17.43,2.58-6,8-9.65,9.74-16.16,1.09-4.12,5.4-7.32,8.05-11.08,11.63-16.53,20.45-34.6,23.92-54.43,3.82-21.76,7.83-43.77,4.56-66.07-1.76-11.94-3.56-24-6.76-35.57-2.28-8.28-6.33-16.93-16-18.92-6.52-1.33-13.47-.75-20.22-.66-3.87.05-7.72,1.19-11.58,1.23-10.6.1-20.3,4.16-30.43,6.29-6.08,1.27-8.22,4.45-9.37,10.06a60.61,60.61,0,0,1-5.19,14.21c-4.63,9.49-10.8,18.1-19.88,23.63-7.49,4.56-15.7,8.05-23.84,11.41-10.44,4.31-17,11.9-20.88,22.2a36.07,36.07,0,0,0-.29,25.22,3.49,3.49,0,0,1-.66,3.14c-.84.6-3,.82-3.43.27-2.39-2.86-5.93-5.84-6.34-9.12-1.86-15,1.83-28.86,12.14-40.33,6.26-7,15.42-9.16,23.39-13.35,8.26-4.33,18-8.07,23.47-14.94,7.19-9,14.49-19,15.93-31.41.19-1.68-.59-3.48-1-5.65,6.27-2.15,12.51-5.16,19.08-6.38,14.79-2.75,29.7-5.15,44.66-6.66,10.58-1.07,21,.73,28.37,9.75s13.61,18.52,14,30.9c.17,5.38,1.83,10.71,2.72,16.08a42,42,0,0,1,.65,6.51c0,8.27,2.36,16.38.58,24.83-1,4.81.19,10-.09,15.06-.17,2.88-1.46,5.67-2,8.55-.95,5.27-2,10.55-2.49,15.87-1.45,14.5-6.39,27.8-13.17,40.58-3.43,6.46-5.94,13.46-9.81,19.63-6.15,9.8-12.81,19.32-19.79,28.57-6.08,8.06-12.33,16.14-19.51,23.2-10.36,10.2-21.21,20.06-35.09,25.58a92.94,92.94,0,0,1-34.14,6.65c-8.63,0-17.26-1.43-25.89-1.52-11.15-.11-22.33.17-33.46.88a194.64,194.64,0,0,0-26,3.26,32.49,32.49,0,0,0-12.69,5.86c-8.21,6.19-15.83,13.16-23.8,19.66-4.13,3.36-8.7,6.19-12.75,9.64-6.67,5.69-13.16,11.6-19.56,17.6-1.86,1.74-6.47,4.74-7.62,6.62-1.71,2.83-4.36,3.82-6.7,5.36-6.82,4.48-13.54,9.28-20.84,12.82a79,79,0,0,1-21,7.07,82.76,82.76,0,0,1-24.87.79c-7.42-1.05-14.48-4.78-21.65-7.47-13.4-5-24.4-14-35.76-22.32-14-10.25-27.79-20.75-41.85-30.89a107,107,0,0,0-14.6-8.55c-1.78-.89-4.31-.85-6.38-.52-4.94.8-7.11-1.25-8.21-8.41-.82-5.27-.06-6.33,5.35-6.72,9.08-.64,18.16-1.26,27.25-1.7,18.38-.91,36.77-1.56,55.14-2.59,12-.67,24-2.25,36-2.64,14.17-.47,28.36,0,42.55-.12,6.83-.06,13.65-.6,20.48-.7,10.61-.15,21.23.16,31.83-.21,11.88-.42,23.74-1.43,35.61-2.08,3.09-.16,6.21.21,9.3.06q21.6-1.08,43.19-2.34c.93,0,1.84-.6,4.24-1.44-16.59-4.88-31.85-9.35-47.09-13.87-7.95-2.36-15.75-5.41-23.84-7-5.89-1.18-12.16-.38-18.25-.77-5.13-.33-10.25-.94-15.33-1.76-3.6-.58-7.09-1.88-10.68-2.55-10-1.86-15.23-10-21.63-16.38-4-4-2.59-16.8.93-22.42,6.2-9.9,10-20.82,7.32-32.45-.76-3.3-5.81-5.9-9.29-8.22-4.13-2.75-8.69-4.83-13.06-7.21-1.18-.64-2.69-1.06-3.45-2-1.76-2.26-4.42-3.78-3.47-7.86,1.1-4.69.37-9.78.9-14.64.45-4.15,1.42-8.4,6-10.19,6.61-2.59,11.23-7.41,15.36-13C350,504.88,355,503.85,361,504a224.74,224.74,0,0,0,24.31-1.22c6.54-.57,13.13-2.83,19.5-2.24,7.68.7,14.59-1,21.61-3.1a31.67,31.67,0,0,0,6.12-3.09c10.16-5.73,7.18-15.74.49-21.54a40.74,40.74,0,0,0-15.38-8.07c-5.87-1.63-12.29-1.62-18.47-1.66-8.3,0-16.6.46-24.89.93-7.42.43-14.84,1.74-22.24,1.55-9.77-.25-19.53-1.34-29.24-2.5-13.93-1.67-27.76-4.19-41.72-5.38-5-.42-10.14,2-15.24,3.11-15.89,3.33-31,.16-46.21-4.58-5.39-1.69-11.42-1.29-17.13-2.07-13.78-1.88-27.53-.38-41.21.81-9.16.8-18.14,3.4-27.25,4.89-5.91,1-12,2.11-17.86,1.81-4.2-.22-8.62-2.13-12.32-4.33-7.09-4.21-13.53-9.49-20.62-13.69-5.55-3.31-10.36-6.8-13.78-12.61-3.59-6.08-8.78-11.2-12.72-17.12a37.61,37.61,0,0,1-6.48-22.07c.33-14.23,9.2-23.86,17.87-33.62,2.9-3.27,6-6.42,8.58-9.89.76-1,.74-3.13.26-4.45-2.11-5.94-4.51-11.78-6.83-17.64a84.53,84.53,0,0,1-5.49-30.58c-.07-8.08,1.35-16.2,2.44-24.26,1-7.8,2.4-15.56,3.82-23.3s3.4-15.52,4.62-23.36c1.36-8.7,1.4-17.32-3.54-25.31-1.2-1.93-1-4.71-1.48-7.09-2.58-11.86-4-23.86-.25-35.6,2-6.23,5.43-12.05,8.73-17.77,3.93-6.83,7.86-13.8,12.86-19.81,2.62-3.16,7.3-5.33,11.45-6.34,12.93-3.13,25.65-6.83,36.64-14.41,7.32-5,14.33-10.44,16.72-20.38,2.18-9.13,6.39-17.82,10.09-26.53,3.37-7.92,10.31-12.85,17.54-16.31,9.14-4.38,19-7.43,28.74-10.32,3.3-1,7.56-1.54,10.64,2.08.68.8,2.5.89,3.79.88,9.45,0,18.91,0,28.35-.32,4.86-.14,9.91,0,14.5-1.38,6.61-1.91,12.89-5,19.31-7.6,4.39-1.77,8.64-4.12,13.2-5.15a58.71,58.71,0,0,1,27,.43c4.67,1.14,9.37,2.18,14.1,3,18.06,3.13,30.31,14.63,40.54,28.64,7.77,10.64,14.27,22.24,22.36,32.62,9.27,11.9,19.55,23,29.62,34.28a115.79,115.79,0,0,0,14.07,13.77c7.88,6.23,16.4,11.64,24.47,17.64,10.19,7.57,19.66,15.77,27.31,26.17,10.12,13.75,14.64,29.34,17,45.76.94,6.53.51,13.24,1,19.85.51,7.28,1.05,14.58,2.06,21.8,2.35,16.77,11.37,30.56,19.9,44.68,3.53,5.84,5.1,12.86,7.62,19.32,4.41,11.32,2.41,23.19,3.14,34.83.75,11.86,5,22.42,13.19,31.15,5.44,5.75,11.06,11.33,16.91,17.3-2.26,1.27-4,2.24-6,3.37-6.77-5.24-14-10-18.66-17.79-2.58-4.28-6.43-7.8-9-12.1-5.67-9.63-5.23-20.49-5.25-31.15a87.59,87.59,0,0,0-12-44.44c-1.1-1.9-3.21-3.2-4.87-4.77M192.63,691.06c1.21,1.16,1.68,1.7,2.24,2.12,8.45,6.42,16.88,12.87,25.39,19.21,4.8,3.58,9.76,7,14.63,10.43,10.79,7.7,21.43,15.61,32.42,23,4.11,2.77,9,4.36,13.58,6.49,8.91,4.18,18,7.8,28.1,7.22A91.79,91.79,0,0,0,334.1,755a109.55,109.55,0,0,0,25.58-12.8c5.89-3.91,10.68-9.45,16.12-14.08,8.35-7.11,16.85-14,25.26-21.07q12.29-10.26,24.51-20.61a32.92,32.92,0,0,0,3-3.34l-35.39.94c-14,.36-28,.77-42,1-15.74.31-31.49.27-47.22.8-12.18.4-24.33,1.47-36.49,2.2-11,.67-22,1.44-33,1.87C220.81,690.46,207.22,690.68,192.63,691.06ZM78.48,429.85a28.09,28.09,0,0,0,1.42-4c1.52-8.5,3.27-17,4.35-25.53s2.38-17.41,1.85-26c-.39-6.4,2-13.66-3.43-19.45A90.88,90.88,0,0,1,77,362.09c-8.62,9-18.21,17.12-19.11,31.2-.48,7.57,2.26,13.75,5.88,19.4C67.62,418.72,73.1,423.71,78.48,429.85Zm445.6-5c.14-11.66,2-21.58-3.86-31.65-6.17-10.55-14.65-15-26-15.51-3.75-.18-4.67,2-2.83,5.49,2.54,4.85,4.85,9.82,7.5,14.6a37.25,37.25,0,0,0,5.46,7.95C510.35,411.87,516.69,417.73,524.08,424.83Z" transform="translate(-50.21 -11.99)"/><path d="M571.49,603.78c-1.84,1.29-3.43,3.29-5.2,3.47-3.73.36-7.56-.52-11.33-.37-8.58.35-17.16.91-25.73,1.6a136.48,136.48,0,0,0-15.88,2c-6.79,1.37-13.48,3.28-20.2,5-10,2.57-19.94,5.27-30,7.63-.93.22-3-1.38-3.4-2.54-.89-2.41-2.19-5.64-1.28-7.57,2.88-6.1,5.9-12.47,10.34-17.41,5.91-6.56,13.3-11.61,22.57-13,5.94-.9,11.86-2.05,17.71-3.43,5.19-1.22,10.21-3.67,15.44-4.18a22.28,22.28,0,0,1,12,2.5c8.25,4.41,16.11,9.57,23.94,14.71,3.29,2.16,7.85,2.74,9.46,7.13C570.37,600.51,570.76,601.68,571.49,603.78ZM551.86,597c-3.94-2.88-6.63-5.35-9.75-7-7-3.78-14-7.58-22.55-3.5a62.38,62.38,0,0,1-23.62,5.88c-4.07.23-8.49,1-12,3-4.94,2.72-10.68,5.12-12.25,11.74-.28,1.16-2,2-3.16,3,.61.58,1.2,1.49,1.53,1.4C496.53,604.46,523,597.28,551.86,597Z" transform="translate(-50.21 -11.99)"/><path d="M434.67,366.19c-5.91-.93-11.79-2.31-17.73-2.69-11-.71-22.2-2.42-32.87-.78-13.27,2-26.1,7-39.08,10.82-2.77.82-5.33,2.43-8.12,3.07-1.24.29-4-.91-4-1.44,0-2.77-2.54-6.54,1.93-8.06s9.32-2.7,14-4.06c9.28-2.72,18.52-5.62,27.85-8.15A42.79,42.79,0,0,1,388.5,353c10.49.27,21,.84,31.41,1.85a114.38,114.38,0,0,1,17.51,3.54c1.09.27,2.58,2.63,2.35,3.68C439.2,364.64,439.43,368.82,434.67,366.19Z" transform="translate(-50.21 -11.99)"/><path d="M174.69,432.33c-8-2.9-15.79-6.68-24.76-5.93-1.24.11-2.7-2.5-4.06-3.86,1.9-1.71,3.86-5,5.69-4.89,13.21.52,25.53,4.57,37,11,10.5,5.91,21,4,31.36-.15,5.51-2.21,10.59-5.46,16-8,1.19-.57,2.84-.2,4.27-.26,0,1.4.48,3,0,4.15-3.44,7.48-10.92,9.58-17.68,11.79-7.59,2.48-15.66,3.5-23.55,5-1,.19-2.12-.45-3.19-.7" transform="translate(-50.21 -11.99)"/><path d="M430,422.54c-.61,8.19-6.6,10.25-11.22,12.91-9,5.2-19.36,5.57-29.34,5.37-8.44-.17-16.86-2.29-25.25-3.8-3.59-.65-6.07-5-4.87-8.11s3.42-4.15,6.25-2.24c8.07,5.45,17.28,5.94,26.42,5.61a109.3,109.3,0,0,0,21-2.93c4.18-1,7.94-3.71,11.95-5.51A34.41,34.41,0,0,1,430,422.54Z" transform="translate(-50.21 -11.99)"/><path d="M215.58,404.06c-2.55.45-5.1,1.26-7.66,1.29-6.91.08-13.87.22-20.75-.39-7.6-.68-14.6.88-21.6,3.49-1,.36-3.8-1.24-3.95-2.22-.42-2.7-.44-5.64,3.49-6.61,12.48-3.08,25-5.31,37.9-3.25,2.8.45,5.75.56,8.33,1.58,1.87.73,3.25,2.7,4.85,4.12Z" transform="translate(-50.21 -11.99)"/><path d="M357.4,405.46c-.4-5.66,1.29-8.6,5.31-9.73,15.19-4.25,30.44-5.5,45.53.23,1.12.42,1.76,3.29,1.73,5,0,.78-2.36,2.36-3.39,2.16-10.06-1.87-20.15-2.9-30.35-1.55-4.42.58-8.78,1.65-13.16,2.54C361.26,404.49,359.47,405,357.4,405.46Z" transform="translate(-50.21 -11.99)"/><path d="M556.78,634.74A21.76,21.76,0,0,1,540.37,638c-5.94-1-11.33.89-16.33,3.87-3.24,1.94-6.9.6-7.55-3-.31-1.7-1.44-4.59-1-4.87a33.87,33.87,0,0,1,9.68-4.33c8.33-1.81,16.86-2.75,25.17-.08C552.73,630.29,554.52,632.83,556.78,634.74Z" transform="translate(-50.21 -11.99)"/><path d="M531.3,546.41c-.44-.94-1.58-2.34-1.67-3.81-.11-1.67.14-4.17,1.23-5,5-3.72,7.12-9,8.74-14.54.76-2.59.57-5.58,1.78-7.86.94-1.76,2.81-4.63,5.79-2.38,2.41,1.81,6,3,3.54,7.55-3,5.69-5.64,11.63-8.16,17.57C540.94,541.76,535.14,546.93,531.3,546.41Z" transform="translate(-50.21 -11.99)"/></svg>