<svg id="Layer_1" data-name="Layer 1" xmlns="http://www.w3.org/2000/svg" width="226" height="226" viewBox="0 0 226 226"><defs><style>.cls-1{fill:none;stroke:#fff;stroke-miterlimit:10;stroke-width:12px;}.cls-2{fill:#fff;}</style></defs><rect class="cls-1" x="6" y="6" width="214" height="214" rx="12"/><path class="cls-2" d="M82,168.62v-2.27l5-1.46c5.69-1.47,6.66-2.44,6.66-14.13v-51H82.5l-.65-.65,1.63-5.85,10.07-.49.16-7.14c.49-20.79,21.76-38.5,41.25-38.5,9.26,0,18,5.2,18,13,0,6.33-5.36,10.23-10.88,10.23l-1-.49c-2.12-6.66-7.64-13.32-14.95-13.32-12.5,0-14.13,14.62-14.13,24V92.45l21.77-.81v7.47l-.65.65H112.55v51c0,11.69,1.3,12.66,7,13.8l8.28,1.79v2.27Z"/></svg>