<svg xmlns="http://www.w3.org/2000/svg" width="564.22" height="594.53" viewBox="0 0 564.22 594.53"><defs><style>.cls-1{isolation:isolate;}.cls-2{fill:#182c5e;}</style></defs><g id="Layer_2" data-name="Layer 2"><g id="Layer_1-2" data-name="Layer 1"><g id="Group_2" data-name="Group 2"><g id="P"><g id="P-2" class="cls-1"><g class="cls-1"><path class="cls-2" d="M78.47,112.88H74.65L91.52,129v23.56h-67L7.3,135.17V111.29H23.38V65.75L7.3,49.35V25.63H69.71c20.22,0,31.37,4.3,38.37,10C125.28,49.51,131.48,56,131.48,75,131.48,98.23,106.81,112.88,78.47,112.88ZM69.71,27.06H9.05V47.92H24.81v65H9.05v20.7H72.9v-20.7h-17V94.41H70.51c20.06,0,46.8-10,46.8-34.71C117.31,32.48,89.61,27.06,69.71,27.06ZM65.09,73.71H55.86V47.92H67.8c9.87,0,15.92,3.5,15.92,11.94C83.72,68.62,79.42,73.71,65.09,73.71Zm8.76-7.16v4.62c3.5-1,5.57-2.39,6.85-4.62Z" transform="translate(-2.87 -22.92)"/></g></g></g><g id="o"><g id="o-2" class="cls-1"><g class="cls-1"><path class="cls-2" d="M285.23,154.75c-22.61,0-39.64-10.83-62.41-38.21a57.12,57.12,0,0,1-13-36.46c0-32.64,26.43-57.16,62.09-57.16a68.46,68.46,0,0,1,38.37,11.31c17.51,11.78,39,29.45,39,57.31C349.23,126.73,326,154.75,285.23,154.75ZM271.86,24.36c-34.87,0-60.5,24-60.5,55.72,0,29.45,22.13,56,60.82,56,38.37,0,60.18-26.27,60.18-55.88C332.36,46.33,305.29,24.36,271.86,24.36Zm.16,91.86c-16.56,0-27.07-12.42-27.07-36,0-24.68,12.1-36,27.07-36,13.69,0,26.9,11.14,26.9,36C298.92,104.44,288.1,116.22,272,116.22Zm22.6-53a25.19,25.19,0,0,0-9.71-1.91c-13.05,0-21.81,8.6-21.81,33.6,0,7,.32,14.8,1.59,18.78a25.19,25.19,0,0,0,7.33,1.12c15,0,25.47-11.78,25.47-34.55C297.49,73.87,296.54,67.82,294.62,63.2Z" transform="translate(-2.87 -22.92)"/></g></g></g><g id="r"><g id="r-2" class="cls-1"><g class="cls-1"><path class="cls-2" d="M536.67,154.11c-12.58,0-20.54-5.25-29.45-15.92v14.33h-64.8l-17.19-17.35V111.29h16.08V65.91L425.23,49.35V25.63h64c17.35,0,29,3,37.89,10.35,19.11,15.6,23.56,22.45,23.56,35.5,0,12.1-6.84,19.9-16.24,25.16l14.33-1.75L565,111.29a32.53,32.53,0,0,1,2.07,12.25C567.08,139,555.46,154.11,536.67,154.11Zm11.15-57.47-15.29,1.91a27,27,0,0,1,1.28,8.12c0,5.41-.8,8.91-3.82,8.91-3.67,0-5.42-2.86-8.28-17.83-1.44-7.64-4.94-13.69-13.7-15.6,14-2.71,26.75-11.46,26.75-24.68,0-24-23.88-30.41-46.17-30.41H427V47.92h15.76v65H427v20.7h61.45v-20.7H473.94v-22h5.74c4.61,0,8.91,1.91,10.5,13,2.87,20.06,15.77,31.37,33.28,31.37,19.1,0,26.59-10.35,26.59-24.52A47.37,47.37,0,0,0,547.82,96.64ZM482.38,70.53h-8.44V47.92h10.51c12.42,0,16.08,3.82,16.08,10.83C500.53,67.18,495.28,70.53,482.38,70.53Zm9.4-5.42v2.55a7.08,7.08,0,0,0,4.93-2.55Z" transform="translate(-2.87 -22.92)"/></g></g></g><g id="o-2-2"><g id="o-3" class="cls-1"><g class="cls-1"><path class="cls-2" d="M502.72,385.75c-22.61,0-39.65-10.82-62.41-38.21a57.11,57.11,0,0,1-13.06-36.46c0-32.63,26.43-57.15,62.09-57.15a68.53,68.53,0,0,1,38.37,11.3c17.52,11.78,39,29.46,39,57.32C566.72,357.73,543.47,385.75,502.72,385.75ZM489.34,255.36c-34.86,0-60.5,24-60.5,55.72,0,29.46,22.13,56.05,60.82,56.05,38.37,0,60.18-26.27,60.18-55.89C549.84,277.33,522.78,255.36,489.34,255.36Zm.16,91.87c-16.56,0-27.06-12.42-27.06-36,0-24.67,12.1-36,27.06-36,13.69,0,26.91,11.15,26.91,36C516.41,335.44,505.58,347.23,489.5,347.23Zm22.61-53a25,25,0,0,0-9.71-1.91c-13.06,0-21.81,8.59-21.81,33.59,0,7,.31,14.81,1.59,18.79a25.53,25.53,0,0,0,7.32,1.11c15,0,25.48-11.78,25.48-34.55C515,304.88,514,298.83,512.11,294.21Z" transform="translate(-2.87 -22.92)"/></g></g></g><g id="f"><g id="f-2" class="cls-1"><g class="cls-1"><path class="cls-2" d="M343.9,321H315.72l-6.05-6v37.25H291.52l7.17,7.32v24H231l-17.19-17.36V342.29h16.08V296.6l-16.08-16.24V256.63H326.71l17.19,17.68Zm-18.79-18.47V258.07H215.58v20.85h15.76v65H215.58v20.7h64.48v-20.7H262.38V320.32h9.56v13.21h21.17V287.84h-21v13.37h-9.72V278.92H300.6v23.57Z" transform="translate(-2.87 -22.92)"/></g></g></g><g id="i"><g id="i-2" class="cls-1"><g class="cls-1"><path class="cls-2" d="M318.87,612.05H253.82l-17-17V571.55h15.79V526.83l-15.79-16.11v-23.3h65l17,17.2v23H302.92v44.1l15.95,17.2Zm-18.45-18.61V573.11H284.47v-63.8h15.95V488.83H238.34v20.48H254v63.8H238.34v20.33Z" transform="translate(-2.87 -22.92)"/></g></g></g><g id="t"><g id="t-2" class="cls-1"><g class="cls-1"><path class="cls-2" d="M136.28,321.91H108.9L95.37,308.38v34.87L112.08,360v23.57H44.74L27.38,366.17V342.29H43.94V321.91H19.74L2.87,304.56V256.63h115.9l17.51,17.52ZM117.5,303V258.07H4.62V303H29v-24H45.53v65H29.14v20.7h64v-20.7H76.74v-65H92.82v24Z" transform="translate(-2.87 -22.92)"/></g></g></g><g id="l"><g id="l-2" class="cls-1"><g class="cls-1"><path class="cls-2" d="M134.85,615.93h-113L4.46,598.58V574.7H20.54V529.48L4.46,512.77V489h67l17.35,17.52V530h-17V574.7H90.11V547.16h27.71l17,17.67ZM116.22,597v-48.4H91.71v27.7H53v-65H70.21V490.48h-64v20.85H22v65H6.21V597Z" transform="translate(-2.87 -22.92)"/></g></g></g><g id="o-2-3"><g id="o-4" class="cls-1"><g class="cls-1"><path class="cls-2" d="M502.72,617.46c-22.61,0-39.65-10.83-62.41-38.21a57.13,57.13,0,0,1-13.06-36.46c0-32.64,26.43-57.16,62.09-57.16a68.46,68.46,0,0,1,38.37,11.31c17.52,11.78,39,29.45,39,57.31C566.72,589.44,543.47,617.46,502.72,617.46ZM489.34,487.07c-34.86,0-60.5,24-60.5,55.72,0,29.45,22.13,56,60.82,56,38.37,0,60.18-26.27,60.18-55.88C549.84,509,522.78,487.07,489.34,487.07Zm.16,91.86c-16.56,0-27.06-12.42-27.06-36,0-24.68,12.1-36,27.06-36,13.69,0,26.91,11.14,26.91,36C516.41,567.15,505.58,578.93,489.5,578.93Zm22.61-53A25.19,25.19,0,0,0,502.4,524c-13.06,0-21.81,8.6-21.81,33.6,0,7,.31,14.8,1.59,18.78a25.18,25.18,0,0,0,7.32,1.12c15,0,25.48-11.78,25.48-34.55C515,536.58,514,530.53,512.11,525.91Z" transform="translate(-2.87 -22.92)"/></g></g></g></g></g></g></svg>