<svg id="Layer_1" data-name="Layer 1" xmlns="http://www.w3.org/2000/svg" width="159.52" height="314.17" viewBox="0 0 159.52 314.17"><defs><style>.cls-1{fill:#182c5e;stroke:#182c5e;stroke-miterlimit:10;stroke-width:2px;}</style></defs><g id="Layer_2" data-name="Layer 2"><g id="Background_Threshold_1_Image" data-name="Background Threshold 1 Image"><path class="cls-1" d="M158.47,129.31c-4.18-2.23-6.36-12-9.06-10.27a147.11,147.11,0,0,1-30.62,5.37c-28.27.63-56.48,0-84.44-4.61C8.26,116.46,9.67,118,22.45,94.87,31.71,80.29,49.51,77,65.27,75.18c5.78-1.34,12-.88,17.89-.29,8.26-.26-2.5,11.29-3.24,16.08-.26,0-.59,0-1,.09a30.3,30.3,0,0,0-4.87,2.43c-6.56,4.55-3.67,9.92,4.22,8.71,7,.37,15.25-4.52,21.06-4.23,2.22-2.7,7.77-.26,7.13-6.81a1.8,1.8,0,0,0-2.19-1.48,1.44,1.44,0,0,1-.87.33.32.32,0,0,1-.31-.3,2.16,2.16,0,0,1,.19-.87,6.94,6.94,0,0,1,.51-1l.1-.17a2.45,2.45,0,0,1,.34-.91,1.08,1.08,0,0,1,.18-.24c.75-2.85,1.24-6.43,3.92-5.14,6.69,2.31,12.93,5.45,17.47,11,7.56,3.25,15.76,18.39,18.11,20.08.68.9,1.59,2.14.33,1.87.94,1.54,1.28,4.61,3.17,5,.44-1.08,1.6.3.73-1.62-.87-2.46-2.67-4.79-3.71-6.87-2-6-7.34-8.9-10.93-14.09-3.88-4.32-8.77-7.23-12.71-11.38-3.42-3.36-13.83-4.2-13-7.55,5.59-16.73,13.94-34.37,20.69-51.48,2.21-5,3.8-10.18,5.44-15.19,2-1.92-.1-3.74-1.55-5.07-1.46-1.64-4.22-.86-6-2.21-2.35-.79-5.71-4-8-2.4-3.61,8.78-6.79,18.73-12.41,26.15-1.16,10.91-9.48,23.92-13.6,35.36-5.35,13.3-3.81,10.77-17.55,9.86-18,1.34-39.23,3.29-51.43,18.2-5.72,7.49-9.58,16.17-12.32,25.17-8-.9-6.38,2.83-8.67,9.09-.35,2.15-1.87,4.6-1.4,6.68,2.85,1,5.47,3.77,8.64,2.74,1,2.12.76,2.62.39,2.83a5,5,0,0,1,.34.88,91.23,91.23,0,0,1,2.14,11.84c.81,6.36,1.09,12.78,1.63,19.17s1.8,12.65,1.55,19a5.71,5.71,0,0,1-.14,1.1,140.8,140.8,0,0,1,1.09,15.3l.21.28a5.14,5.14,0,0,1,.62,3.62c.54.92,0,1.25-.32,1.92.07.43.13.87.2,1.3.18,1.28.33,2.57.46,3.86a3,3,0,0,0,.48.36,1.43,1.43,0,0,0-.44,0c0,.31.07.63.1.94.41.3.32.87.15,1.56.08.8.16,1.6.25,2.41,0,.31.07.62.1.94.44-.26.25,0,.05.44.14,1.37.27,2.75.35,4.14l.17.18c.51.5-.57,1.49.34,1.76-1,11.41,3.64,23.28,4,35,.29,2.72.21,5.47.9,7.82a.24.24,0,0,1-.21-.05c0,.25.07.49.11.74a55.32,55.32,0,0,1,.44,7.39,5.07,5.07,0,0,1,0,.55c.46,1.7,1,3.37,1.33,5.11a31.06,31.06,0,0,1,.66,9.36,5,5,0,0,1-.21,1.45,3,3,0,0,1-.26,1.55c-.15,2.94,4.16,5.16,6.46,6.62,13.52,7.46,29.56,7.19,44.61,8.2,17.71,2.05,35.77.6,52.51-5.7,6.05-1.8,5.47-6,5.93-11.2,2.46-15.16,1.94-30.59,3.3-45.68,1-18.5,6.94-46.58,5-59.07.59-4.35.3-10.08,1.11-14.56a10.46,10.46,0,0,1,0-1.48c.12-1.76.43-3.52.71-5.26a20.82,20.82,0,0,1,1.78-6.2c.75-9.46,2.85-18.85,2.73-28.35,2.21-1.47,1.72,0,3.28.14C153.82,131,159.06,132.05,158.47,129.31ZM72.91,99.51c-.88-1.8.47-4.39,2.26-5.38h0a1.84,1.84,0,0,1,.64-.69.32.32,0,0,1,.27-.13c3.19-1,2.63,0,1,3.36C76.27,98.28,74.87,102,72.91,99.51Zm32-8.86c1,2.37-1.47,4.18-3.44,4.37C102.32,93,102.26,90.8,104.89,90.65Zm1.34-12.54c-.57-.37-1.69.15-1.31-1.25C106.42,76.31,107.07,76.39,106.23,78.11Zm14-40.4,1.32-.39C121,38.1,120.89,38.71,120.25,37.71Zm1-34.63c3.35.69,6.11,4.47,9.42,4.24C137.58,10.75,121,7.22,121.25,3.08Zm-2.62,1.38c1-1.9.47-.54,1.51.15,2.47,3.64,6.81,5.27,11,6,5,4.68-15.82,7.5-19.18,10C113.88,15,117.22,10.19,118.63,4.46ZM103,41.75c2.13-4.12,3.18-8.63,5-12.86,6.33-1.31,13.33-4.56,20.1-6.19-1.33,4.2-2.82,9.12-5.35,12.58-7.22,1.78-12.73,5.26-19.25,7.1C103.12,42.5,102.82,42.17,103,41.75Zm.6,1.64c-.09.57-1,.57-1.57,1C102.48,43.36,102.51,42.93,103.63,43.39Zm-8.09,16c1-3.89,3.38-5,6.8-6.31,1.19-1.26,4-.55,3.62-1.46,20.33-9.6,7.18,3.94,4.14,15.24-.22,2-1.57.46-2.83.37C103,68.86,98.65,70,94.35,71.41,84.09,77.32,94.4,65.09,95.54,59.35ZM90.88,83.29C95.66,81,101.11,78.5,105,81.18c-2.27,4.66-2.51,9.13-5.37,13.49-3.8,2.85-11.07,3.82-16.18,5-6.54,1.74-7.11.66-3.4-4.78.73-.17,1.11-1,1.5-1.88A11.6,11.6,0,0,1,82,90.39a.88.88,0,0,1,.19-.58c.15-.43.31-.87.49-1.32a5.78,5.78,0,0,1,1.9-2.74,5,5,0,0,1,2.45-1A16.73,16.73,0,0,1,90.88,83.29Zm58,50.35c-7.64,4.68-7.64-5.42-8.35-10.85C148.1,118.91,145.14,129.48,148.88,133.64ZM132,125.11c.6.76.37,12.51,4.51,10.72a30.67,30.67,0,0,1-2.84-10.2c-1-2.68,3.35-1.58,4.9-2.31,1.45,3.52,1.41,8.38,3.07,12.16-4.07,1.4-8.36,1.65-12.61,2.15-1.84-3.67-1.36-9.27-3.4-12.08C127.46,125.24,130.6,123.67,132,125.11Zm-6.57,5.12c.51,4.4,3.83,8.8-2.76,8.67a1.36,1.36,0,0,1-1.48-1.25c-.77-3.92-.72-7.9-1.67-11.8C125.1,125.85,124.67,123.77,125.39,130.23Zm-5.66,9.05c-10.18,3-6.69-6.47-7.5-13C122.1,123.67,117.5,133.06,119.73,139.28Zm-9.94-13.06c2.71,2.44-.54,10,1.89,13.68-4.66.95-4.88-1.57-5-5.64C107.43,131,104.59,124.68,109.79,126.22ZM98.3,127c1.24,3.69-1.49,11.57,2.65,13h0c.6-5.62-4.8-16,4.18-13.87-.47,11.22,3.94,15.86-10.26,14.58-2.94-3.4-1.55-9.54-2.11-13.87C91.71,125.15,99.7,125.62,98.3,127Zm-6,13.61c-8.21,1.8-4.22-9.67-5.65-14.67C95,123.93,89.5,135.32,92.29,140.58Zm-20-14.65c16.44-1.07,12,.23,13.55,14.47-9.17,2.18-5.83-7.11-6.41-13.05-2.36-4-1.84,10.53-1.28,12.56C69.23,141.2,72.41,131.78,72.33,125.93Zm-8.24-.77c9.5-2,5.53,7.23,6.63,14C60.2,141.1,65.19,131.67,64.09,125.16Zm-6.11-1c9.32-.88,2.05,8.07,4.58,14.76h0c-6.5.68-7.19-2-6.76-7.75C56.62,128.65,54,122.53,58,124.11Zm-7.89-.87c1.23.48,4.42-.37,4.58,1.14a52.54,52.54,0,0,0,.15,13.78h0c-4.71-.09-5.92-.21-5.67-5.1C49.58,130.29,47.1,124.38,50.09,123.24ZM48,137.47l-7.88-.76A70.83,70.83,0,0,0,40,122.23C52.16,121.12,45.28,129.81,48,137.47ZM30.88,120.81c12.25-1.77,5.47,8.93,8.69,15.89C25,136.76,32.77,131.84,30.88,120.81Zm-8.2,1.94c.43,0,1.22-2.07.95-2.08-1.08-.22-.76-1,.14-.93,3.36.61,6.84-.07,5.57,4.36-.54,3.62.72,8.45-.86,11.47-2-.43-4.05-.53-6.05-1.07C23,130.88,23.43,126.3,22.68,122.75Zm-6.31-4.55c9.26-.42,3.3,6.61,5.75,5.82a25.1,25.1,0,0,0-.9,10.34c-3.31-.53-6.82.21-5.06-4.16C15.77,126.13,16.33,122.2,16.37,118.2ZM6.43,132.65c-6.35-1.07-2-8-.69-12.24C6.68,124.33,6.36,128.6,6.43,132.65ZM8.18,129c-.3-3,.14-6.18-.83-9.11-.47-.36-1.29.76-1.47-.53,1.78.1.83-1,.6-2.27,2.7,1.06,5.29.21,8,.76a10.84,10.84,0,0,0,0,7.12c-1,2,.35,4.83-.24,7.27C13.7,134.4,6.39,132.91,8.18,129ZM18,214.76c0-.44-.53-1.28-.09-1.47C18,213.82,18.85,214.69,18,214.76ZM132.33,304c-.23-.29,1.27-1.74,1.54-1.36C133.61,303.36,132.94,303.64,132.33,304Zm15.8-167c-.07,1.44-2.52,24.33-4.32,39.21-1.41,6.95-.82,14.33-1.5,21.23.1,1.54.17,3.07.12,4.61,0,.69-.07,1.39-.14,2.08.2.19.07.52-.08.8s-.05.37-.07.55l.15,0c0,1.82-.21,2.1-.43,1.73l-.09.46c-.07.32-.15.64-.23,1a24.09,24.09,0,0,1-.33,7.27c-.38,2-1,4-1.37,6.06s-.78,4.34-1.14,6.51c-1.78,24.06-2.76,48.26-5,72.2C127,316.35,30.54,314.32,27.48,296l.35-.09c-.39-3-.33-6.11-.46-9.15-.06-1.54-.14-3.09-.13-4.63-.18-.41-.35-.84-.51-1.28a19.46,19.46,0,0,1-.91-5.92,25.4,25.4,0,0,1,.18-3.59c-.11-.84-.21-1.65-.27-2.44-.8-12.4-2.79-25.17-3.85-34.34-.36-9-2.41-18.43-2.88-27.41-.45-3.81-.89-7.61-1.05-11.43-.5-3.74-1.1-10.35-1.22-13.85a11.81,11.81,0,0,1-.39-3.4,5.77,5.77,0,0,1,.54-2.25c-.43-4-.91-8-1.39-11.93-.44-3.65-.89-7.26-1.1-10.91a8,8,0,0,0-.33-1.1c-.76-5.73-1.34-11.43-2.05-17.15,1.62-1.44,4.68.35,6.76.44,13.51,2.3,27.1,3.19,41,4.68a331.28,331.28,0,0,0,68.26-.13c1.05,1.26,1.76,1.16,2.35-.35.05-1.85,13.13-1.79,17.54-4.28.24,2.25.67,1.2.93-.47C150.56,135.45,149.26,138.89,148.13,137Zm3.56-4.43c-2.66,1.48-2.95-4.39-3.79-6.05-.89-3.31-2.79-5.88,2.08-5.71C152.54,124.43,153.36,129.16,151.69,132.58Zm2.39-2v-3.41C155.76,128.8,157.19,129.78,154.08,130.54Z"/><path class="cls-1" d="M124.88,155c-1.39-.42,2.33-1.17,1.2,1.1,1.07,1.61-.54,4.38-1.49,5.9-.18,4-1.14,10.8-1.15,16,1.34,19.39,0,38.78-1.87,58.09-1,10.14,1,22.25-1.92,31.44-1.76-20,1.72-42,2.7-62.6C123.13,188.36,120,170.87,124.88,155Z"/><path class="cls-1" d="M50.67,291.73c-.59-1.41-6.1-.23-6.23-3.17,3.5-2.17,12.08,4.7,17.7,4.09,13.67,1.71,27.6-.59,40.82-3.1C100.14,296.07,58.65,295.94,50.67,291.73Z"/></g></g></svg>