<svg id="Layer_1" data-name="Layer 1" xmlns="http://www.w3.org/2000/svg" width="226" height="226" viewBox="0 0 226 226"><defs><style>.cls-1{fill:none;stroke:#fff;stroke-miterlimit:10;stroke-width:12px;}.cls-2{fill:#fff;}</style></defs><rect class="cls-1" x="6" y="6" width="214" height="214" rx="12"/><path class="cls-2" d="M49.45,161V158.9l4.6-1.33c5.19-1.34,6.08-2.23,6.08-12.91V106.84c0-10.68-.89-11.72-6.23-12.76l-5.19-1.19V90.67l27.73-3.56.89.74v56.81c0,10.68.89,11.57,6.09,12.91L88,158.9V161ZM68.58,70.64c-7.41,0-10.08-5-10.08-9.64,0-4.3,2.67-9.49,10.38-9.49,6.82,0,10.38,3.86,10.38,9.49C79.26,67.08,75,70.64,68.58,70.64Z"/><path class="cls-2" d="M142,161V158.9l4.6-1.33c5.19-1.34,6.08-2.23,6.08-12.91v-32c0-9.49-5.94-15.28-15.73-15.28-8.75,0-14.53,5-14.53,9.5v37.82c0,10.68.89,11.57,6.08,12.91l4.6,1.33V161H94.54V158.9l4.6-1.33c5.19-1.34,6.08-2.23,6.08-12.91V106.84c0-10.68-.89-11.72-6.23-12.76L93.8,92.89V90.67l26.85-3.56.89.74v11h.15c7.12-7,14.39-12.46,24.92-12.46,14.38,0,23.28,8.6,23.28,22.69v35.6c0,10.68.89,11.57,6.09,12.91l4.59,1.33V161Z"/></svg>