<svg id="Layer_1" data-name="Layer 1" xmlns="http://www.w3.org/2000/svg" width="255.11" height="298.65" viewBox="0 0 255.11 298.65"><defs><style>.cls-1{fill:#182c5e;}</style></defs><path class="cls-1" d="M180,228.78a85.12,85.12,0,0,1-10,13.12c-1.85.51-4-1.76-2.29-3.56,12.11-13.91,21.64-31.47,25-49.36-8.84-5.83-20.07-6.85-30.1-10.14-9.69-1.05-20.51-3.85-26.26-12.75-6-7.9-4.85-21.57,1-29.72,13.32-17,48.38-4.39,61.42,8.42-.29-18.69,7.56-2.42,14.67.67a49.16,49.16,0,0,1,9,3.27c6.2,0,14.7,2.75,19.73-1.45a17.28,17.28,0,0,0-2-17.63C232.84,121,223,114.58,216.65,105A59.75,59.75,0,0,1,203.3,78.07c-3.84-6.74-3.37-14.26-13.68-12.75-18.25,1.18-36.55,1.29-54.75,3,2.69,3.45,3,7.34,2,11.54-.19,3.1-5.94,3.69-7.84,1.62-2.21-1.46-2.4-4-4-5.87-1.44-1-1.07-2.72-.62-4.26-.51-1,0-1.92.23-3-13.68,0-27.66.09-41.27.51-4.18,3-4.26,9.14-6.47,13.53a57.84,57.84,0,0,0-2.9,18.5c-1.87,39.56-3.78,81.49,15.58,117.4,3,6.33,8.06,11.29,11,17.62,2.16,1.67,6.17,6.61,1.17,6.65-15.15-15.46-4.44-19.43-32.95-4.37-19.49,11.07-36,26.24-51.87,41.84-4.26,5-9.06,9.73-12.32,15.49A2.39,2.39,0,0,1,2,296.79c-.81-.74-2.93-2.06-1.54-3.18C7.7,284.59,15.05,275.54,24,268c19.09-17.78,39.46-34.44,64.51-43.06-15.28-25.67-19.88-54.1-19.51-84,.57-24.2-2.73-51.08,9.71-72.74-17-3.78-34.78-4.4-49.87-13.53C20.48,47.7,9.67,33.2,24.16,26.56c4.51-1.44,10.42-.7,15.33-.43,9.35.17,14.58,9,22.73,12,14,5.74,16.92,0,24.24-10.76,6.18-5.69,11.39-14.21,19.91-16.33,4.77-3.08,10.22-7.13,16.09-7.8,1-.16,1.73-1.17,2.83-1,1.7,0,3-1.57,4.68-1,8.55-1.06,17.91-2.33,26.28.08,13,3,20.41,14.75,29.9,23,6.69,7.05,15.63,14.93,25.89,9.71,9.93-6.76,24.62-9.43,36.15-5,7.15,6.12,9.8,15.62,2.91,23.06-13.82,10.51-33.38,8-49.42,12.74,5.93,8.31,6.63,18.89,11.75,27.62,7.76,14.75,21.95,23.94,32,36.75,4.8,7.57,3.78,24.39-8.07,23.41-11.46,1.31-26.08-1-34.09-10-.89,18.83-2.58,37.54-8.49,55.49a92.85,92.85,0,0,1-10.75,24.43c-3,3.81,4.93,5.72,6.72,8.92,15.84,13.78,29.09,29.92,41.77,46.54,1.79,4.44,17.19,17.48,12,20.35-3.51,1.19-4.59-4.85-6.72-6.77-6.49-8.07-12.54-16.44-18.83-24.7C206.87,253.59,195.16,238.54,180,228.78ZM99.89,65.07c16.37-1.88,34.1.17,50.52-2,26.14-.39,51.22-2,77-6.73C238.66,55,261.22,47.19,247,33.59c-8.32-4.65-21.4-2-29.6,2.06-8,7-21.89,5.45-27.94-2.75-5.34-5.84-12.23-10.47-16.49-17.16-3.54-1.08-6.54-5-9.66-7.23a43.51,43.51,0,0,0-10.81-3.87c-25-2.8-50,7.52-64.77,28.09C82.52,45,70.27,47.64,59.33,41,52.39,36.79,46.72,29.8,37.88,29.67c-28.31-2.61-16.29,20,.91,26.63,13.7,3.12,27.32,6.16,41.2,8C86.41,66,93.44,63.57,99.89,65.07ZM197.34,150c-9.29-13.41-41.52-25.15-54.92-13.53-8.86,9.38-7.2,27.17,4.33,33.57,5.2,3.66,11.55,4.06,17.58,5.19,10.34,2.38,20.43,5.57,30.47,8.89C195.24,173,200.19,160.46,197.34,150Zm-66-71.76c3.14.44,3.72-3.63,1.78-5.17-1.83-.85-3-6.4-5.19-4.16C130,71.69,128.33,76.09,131.37,78.23Z"/><path class="cls-1" d="M192.24,95.57c3.15,2.72.14,8.82-1.85,11.8-3.77,8.1-13.67,8.89-21.5,7.46C159,112,129.78,102.47,135.48,88.74c1.56-4.91,6-7.73,9.43-11,2.87-2.81,6-5.79,10.24-6,7.21.63,16.25,1,20.93,7.09C182.46,79.63,189.44,90,192.24,95.57ZM177,83.49c-15.26-11.89-30.71-8.93-38.49,9,3.38,9.66,18.2,12.54,26.83,17a56.38,56.38,0,0,1,.62-9.14c-.46-.52-.09-.87.14-1.11,1.26-2.43,1-5.24,2.93-7.34C170,88.14,175.38,87.07,177,83.49Zm6.22,7.44c-3.78-6.14-6.19-1-10,1.68-4.1,4.21-4.28,11.65-3.5,17,2,3.11,7.39,1,10.64.78,2.89-.11,4.68-2.46,6.44-4.3,4.94-6.17,1.73-10.36-2.49-15.84Z"/><path class="cls-1" d="M118.13,82.57c3.71-.33,7.7.18,9.43,4,.64,1.18,2.17,2.7.82,4-1.11,1.16-.47,3.92-2.69,4-1.1.76-2,1.85-3.48,2-10.34,2.92-16.81-13.75-4.1-14.31Zm-3.53,7.18c3.23,4.08,7.52,3.29,10.86.09C124.38,85.91,114.5,84.86,114.6,89.75Z"/><path class="cls-1" d="M99.89,65.07c-6.45-1.5-13.48,1-19.9-.72-13.88-1.89-27.5-4.93-41.2-8-17.1-6.6-29.31-29.22-.91-26.63,8.85.13,14.5,7.12,21.45,11.3,11,6.66,23.18,4,28.36-8.24,14.73-20.57,39.79-30.89,64.77-28.09a43.51,43.51,0,0,1,10.81,3.87c3.13,2.23,6.13,6.15,9.66,7.23,4.26,6.69,11.15,11.32,16.48,17.16,6.06,8.19,19.94,9.78,28,2.75,8.25-4.06,21.23-6.7,29.6-2.06C261.19,47.2,238.68,55,227.39,56.36c-25.76,4.74-50.85,6.34-77,6.73C134,65.24,116.25,63.19,99.89,65.07Z"/><path class="cls-1" d="M197.34,150c2.85,10.47-2.1,22.95-2.54,34.12-10-3.32-20.13-6.5-30.47-8.89-6-1.13-12.38-1.53-17.58-5.19-11.53-6.4-13.19-24.19-4.33-33.57C155.83,124.84,188,136.57,197.34,150Z"/><path class="cls-1" d="M183.24,90.93l1.14-.63c4.22,5.49,7.43,9.66,2.49,15.84-1.77,1.84-3.55,4.19-6.44,4.29-3.25.21-8.64,2.33-10.64-.77-.78-5.4-.6-12.84,3.49-17C177.05,90,179.46,84.78,183.24,90.93Z"/></svg>