<svg id="Layer_1" data-name="Layer 1" xmlns="http://www.w3.org/2000/svg" width="1405.7" height="1033.86" viewBox="0 0 1405.7 1033.86"><defs><style>.cls-1{fill:#eae8df;}.cls-2{fill:#25448f;}.cls-3{fill:#770505;}</style></defs><path id="Path_18" data-name="Path 18" class="cls-1" d="M452.6,605.46c-11.83,10.15-17,32.53-8.28,48.08,7.73,13.85,23.78,17.56,32.79,19.64,24.52,5.67,40.81-3.11,55.61-4.89,44-5.28,88.16,21.92,116.54,58.37s44,81.16,58.89,124.91,30.27,88.48,58.28,125.23c40,52.5,105.24,83.84,168.63,81,71.6-3.18,134.55-46.63,183.71-98.51s88.31-113.1,137.24-165.2c65.5-69.75,146.82-121.42,219.17-183.62s138.23-139.89,156.75-236.19c13.1-68.12-5.74-151.52-66.29-185.87-58-32.92-127.34-9-192.39-7.53-56.76,1.32-114.51-15.82-163-48.36-41.33-27.73-76-66.23-120.12-88.7-76.72-39.11-175.9-18.39-228,47.63C753.49,229,879.28,434.92,754.39,541.72c-33.21,28.4-143.55,98.35-231.2,68.32C507.87,604.79,471.67,589.1,452.6,605.46Z" transform="translate(-230.18 -24.14)"/><path id="Path_17" data-name="Path 17" class="cls-2" d="M884.39,485.92c7.59,3.47,13.54,14.24,11.37,23.53-1.94,8.28-9.66,12.56-14,15-11.79,6.53-21.47,4.42-29.36,5.69C829,533.88,810.25,554.4,801,577.37s-10.65,48.28-11.89,73-2.52,50-11.52,73.1c-12.85,32.94-41.81,58.71-74.87,66.62C665.4,799,626.58,786,593.6,766.5s-62.18-45.2-95.07-64.8c-44-26.25-93.53-40.85-140-62.2S266.72,587.88,243,541c-16.8-33.14-19.42-78.87,6.69-105.5,25-25.52,64.24-23.45,98-32.28,29.43-7.71,56.63-25.06,76.8-49,17.19-20.38,29.36-45.33,48.76-63.41,33.73-31.47,87.86-35.44,124.46-9.14,76.23,54.79,41.86,179.39,121.94,215.94,21.3,9.73,88.44,29.45,129.15,1.05C855.83,493.73,872.15,480.31,884.39,485.92Z" transform="translate(-230.18 -24.14)"/><g id="Group_18" data-name="Group 18"><g id="face"><path id="Path_8" data-name="Path 8" class="cls-3" d="M1225,290.38c-3.43-6.95-4.72-14.48-5.5-22.05-1.07-10.34-1-20.82-2.67-31-1.32-7.84-4.72-15.33-7.14-23-3.46-11-12-18.18-19.8-25.66-4.74-4.53-11-7.44-16.26-11.46-5.61-4.27-11-8.94-16.35-13.55a88.93,88.93,0,0,1-8.68-8.13c-5.14-5.73-10.36-11.46-14.92-17.65-6.31-8.61-11.85-17.79-18.08-26.43-6-8.26-12.31-16.28-20.63-22.41a20,20,0,0,0-6.4-2.92c-5.83-1.6-11.67-3.8-17.62-4.24-7.37-.55-15-2.72-22.26,1.64-4.63,2.76-10,4.36-15,6.34a54.72,54.72,0,0,1-19.35,3.6c-8.21.09-16.41.4-24.61.51-1.45,0-3.6.09-4.24-.75-3.59-4.75-8.07-2.14-11.54-.94-6.61,2.29-12.91,5.6-19.15,8.88s-8.23,9.61-10.57,15.62c-2.68,6.87-5.07,13.86-8.15,20.55-2.16,4.67-6.68,7.21-10.86,10.1-7.47,5.25-15.84,8.12-24.25,11.08-3.27,1.14-6.46,2.55-9.74,3.64-6.4,2.11-8.68,8-11.82,13-4.75,7.48-8.75,15.51-10.41,24.28-.8,4.13-.4,8.62.16,12.85A75.35,75.35,0,0,0,872.17,225c2.56,8.14,3.56,16.17,1.06,24.59-1.39,4.72-1.64,9.77-2.54,14.65-1.19,6.34-2.8,12.61-3.73,19-2.24,15.43-1.36,30.6,4.72,45.2.61,1.44,1.22,2.88,1.76,4.35a16.07,16.07,0,0,0,2.4,4.81c1.51-3.62,3.48-7.11,4.42-10.85,1.93-7.63,6.1-13.89,11-19.72,8.64-10.2,13.77-22.2,18.83-34.37a103.74,103.74,0,0,1,10.77-19.21,76.17,76.17,0,0,1,13.39-15.17,43.68,43.68,0,0,1,14.94-7.79,186.83,186.83,0,0,1,27.53-6.26c12.41-1.79,20.53-9.66,28.68-18,4.67-4.74,6.89-10.73,8.22-16.81,2.12-9.7,3.27-19.62,4.81-29.45a20.92,20.92,0,0,0-.05-3.45c5.17-2.91,8.1-1.66,9.89,3.7,5.51,16.58,10.68,33.39,21.25,47.67,6.74,9.1,14,17.55,24.17,23.59,6.1,3.64,12.22,5.1,18.86,5.93,9,1.13,16.73,5.3,24.32,10.12,13.31,8.45,19.47,22.06,26.59,35.11,4.16,7.63,8.25,15.4,13.37,22.42,3.2,4.34,8,7.66,12.45,10.83,7.39,5.2,14.84,10.41,20.34,17.62a31.22,31.22,0,0,1,6.59,16c.37,3.84,1.77,7.56,2.54,10.64,6.31.8,12.06,1.23,17.73,2.22,8.19,1.44,12.17,8.12,15.62,14.5,2.25,4.16,3.12,9.33,3.5,14.13.36,4.54-.8,9.2-1.12,13.82a18.59,18.59,0,0,0,.71,4.43c.2,1.13,1,2.87.58,3.24a6.44,6.44,0,0,1-4,1.61,7.07,7.07,0,0,1-3.93-1.61c-6-4.8-12.18-9.4-17.72-14.68-6.37-6.06-10.41-13.91-13.31-22.05-3.52-10-5.56-20.46-9.18-30.38a34.27,34.27,0,0,0-8.67-12.81c-5.55-5.18-12.25-9.09-18.13-13.93a69.7,69.7,0,0,1-9-9.48,68.13,68.13,0,0,1-7.38-10.17c-5.13-9.16-9.52-18.77-14.93-27.78-8-13.36-19.17-22.94-34.48-26.92-4.88-1.27-10.2-1.36-14.75-3.3a88.71,88.71,0,0,1-19-10.46c-10.56-8-17.81-19-24.12-30.58-2.94-5.4-5.87-10.83-8.28-16.47-1.92-4.49-3-9.33-5.49-14.07-.21,1.32-.34,2.66-.63,4-1.88,8.68-3.68,17.39-5.74,26.05-1.6,6.79-6.41,11.61-11.21,16.21a58.06,58.06,0,0,1-12.54,9.71c-4.6,2.47-10,4-15.27,5.3-9.55,2.46-19.39,4-28.78,6.92-9.21,2.89-15.36,10.2-21.19,17.61-6,7.63-10.19,16.18-13.93,25.17-5.87,14.07-13.15,27.46-23.38,39.08a19.23,19.23,0,0,0-4.12,9.41c-.8,5.22-3.84,9.06-6.24,13.37-.65,1.19-1.13,3.06-.67,4.2,3.83,9.29,3.9,19.06,3.59,28.79-.16,4.7-1.5,9.35-2.3,14-1.25,7.23-2.59,14.46-3.65,21.74a4.27,4.27,0,0,0,2,3.5c6.22,2.45,11.72,5.6,16.19,10.86,2.61,3.07,6.66,3.65,10.88,2.91,9.38-1.67,18.82-3.1,28.24-4.52,11.21-1.68,22.54-2.82,33.94-1.6,5.08.55,10.26.57,15.27,1.5,6.27,1.15,12.34,3.66,18.63,4.35,5.79.63,11.79-.13,17.62-.73,4.06-.42,8-1.6,12.17-2.49a68.27,68.27,0,0,1-13.76-27.52c-.63-2.6-1-5.26-1.69-7.86-1.74-6.91-6.89-9.52-13.29-11.43-5-1.5-9.37-5.26-14.41-6.73A168.89,168.89,0,0,0,967,366.83c-13.62-2.06-26.47,3.2-39.71,4.59-11.12,1.18-22.7,1.74-32.3-6.11-.91-.76-1.68-3.38-1.29-3.73,1.6-1.37,3-4.5,5.82-2.44,4,2.88,8.24,5.35,13.15,5.51,6.6.21,13.19.71,19.85-.8a203,203,0,0,1,25.92-4.26,77.33,77.33,0,0,1,31.53,3.7c5.09,1.68,9.61,4.94,14.53,7.21,2.22,1,4.8,1.32,7.14,2.14,5.69,2,8,7.11,9.89,12,1.86,4.74,2.4,10,3.81,14.94a36.32,36.32,0,0,0,2.88,6.84c3.7,7,7.67,13.85,14.11,18.81a5.25,5.25,0,0,0,2.19.75c6.46,1.14,12.9,2.36,19.38,3.33,11.55,1.73,23.09,3.67,34.89,2s23.42-2.45,35.16-.88c5.9.8,12.2,1.27,17.46,3.74,8.48,4,14.47,10.87,14.94,21,.34,7.64-5.32,10.88-11.1,13.39a47.85,47.85,0,0,1-24.51,3.84c-4.65-.49-9.54,1.8-14.36,2.11-6.06.38-12.17-.17-18.25.05-3.9.14-6.82,2.2-9,5.6a25.47,25.47,0,0,1-13,10.51,48.75,48.75,0,0,1-.46,5.4c-1.4,7.32-.89,8.46,5.7,12,3.4,1.84,6.82,3.63,10.15,5.6,6.49,3.82,7,10.48,7.93,16.94,1,6.91-2.74,12.63-4.8,18.74-1.19,3.51-3.07,6.78-4.63,10.16.38,0,.85,1.75,1.23,1.73,1,1.77,1.68,1.95,2.93,3.51,3.42,4.26,6.95,8.51,12.85,9.44,7.76,1.22,15.6,3.71,23.29,3.32,11.9-.61,22.3,4,33.25,6.85,9.06,2.4,18.11,4.81,27,7.63,5.41,1.71,10.48,4.53,15.91,6.18a80.16,80.16,0,0,0,14.07,2.53c6.13.69,12.33,1.49,18.47,1.28,11.27-.4,22.62-1.5,31.93-8.81a226.81,226.81,0,0,0,18.9-16.69c4.29-4.21,9.07-8.65,11.36-14,2.07-4.8,6.41-7.72,7.8-12.93.88-3.3,4.33-5.86,6.45-8.88,9.31-13.23,16.37-27.7,19.15-43.58,3.06-17.42,6.27-35,3.65-52.9-1.41-9.56-2.85-19.21-5.41-28.48-1.83-6.63-5.07-13.55-12.81-15.14-5.22-1.07-10.79-.6-16.19-.53-3.1,0-6.18,1-9.27,1-8.49.08-16.26,3.33-24.37,5-4.87,1-6.58,3.56-7.5,8.05a48.53,48.53,0,0,1-4.16,11.38c-3.7,7.6-8.64,14.49-15.91,18.92a137.63,137.63,0,0,1-19.09,9.13c-8.36,3.46-13.61,9.53-16.72,17.78a28.82,28.82,0,0,0-.23,20.19,2.83,2.83,0,0,1-.53,2.52c-.67.48-2.4.65-2.75.21-1.91-2.29-4.75-4.68-5.07-7.3-1.5-12,1.46-23.11,9.71-32.29,5-5.61,12.35-7.34,18.73-10.69,6.62-3.47,14.41-6.47,18.79-12,5.76-7.21,11.61-15.22,12.76-25.15.15-1.35-.47-2.79-.8-4.53,5-1.72,10-4.13,15.27-5.1,11.84-2.21,23.78-4.13,35.76-5.34,8.47-.85,16.81.59,22.71,7.81s10.91,14.84,11.22,24.75c.14,4.31,1.47,8.57,2.18,12.87a33.94,33.94,0,0,1,.52,5.22c0,6.62,1.89,13.11.46,19.88-.8,3.85.16,8-.07,12.06-.13,2.3-1.17,4.54-1.6,6.84-.76,4.22-1.6,8.45-2,12.71-1.16,11.61-5.12,22.26-10.55,32.49-2.74,5.17-4.75,10.78-7.85,15.72-4.92,7.84-10.26,15.46-15.84,22.87a167.47,167.47,0,0,1-15.62,18.58c-8.3,8.17-17,16.06-28.1,20.48a74.39,74.39,0,0,1-27.33,5.32c-6.91,0-13.82-1.14-20.73-1.22-8.93-.08-17.88.14-26.79.71a155.05,155.05,0,0,0-20.82,2.61,26.14,26.14,0,0,0-10.16,4.69c-6.57,5-12.67,10.54-19.05,15.74-3.31,2.69-7,5-10.21,7.72-5.34,4.55-10.54,9.29-15.66,14.09-1.49,1.39-5.18,3.79-6.1,5.3-1.37,2.27-3.49,3.06-5.37,4.29-5.46,3.59-10.84,7.43-16.68,10.27a63.54,63.54,0,0,1-16.82,5.66,66.48,66.48,0,0,1-19.91.63c-5.94-.84-11.59-3.83-17.33-6-10.73-4-19.54-11.21-28.63-17.87-11.21-8.21-22.25-16.62-33.51-24.74a86.46,86.46,0,0,0-11.69-6.84,9.07,9.07,0,0,0-5.11-.42c-4,.64-5.69-1-6.57-6.73-.66-4.22,0-5.07,4.28-5.38,7.27-.51,14.54-1,21.82-1.36,14.71-.73,29.44-1.25,44.15-2.08,9.61-.53,19.21-1.8,28.82-2.11,11.35-.38,22.71,0,34.07-.1,5.47-.05,10.93-.48,16.4-.56,8.49-.12,17,.13,25.48-.17,9.51-.33,19-1.14,28.51-1.66,2.48-.13,5,.17,7.45,0q17.29-.87,34.58-1.88c.75,0,1.48-.48,3.4-1.15-13.29-3.91-25.51-7.49-37.71-11.1-6.36-1.89-12.61-4.34-19.08-5.61-4.72-.94-9.74-.3-14.62-.61-4.1-.27-8.2-.76-12.27-1.41-2.88-.47-5.68-1.51-8.55-2-8-1.49-12.2-8-17.32-13.11-3.2-3.2-2.07-13.45.74-18,5-7.93,8-16.67,5.86-26-.6-2.65-4.65-4.73-7.43-6.59-3.31-2.2-7-3.86-10.46-5.77-.94-.51-2.15-.85-2.76-1.6-1.41-1.81-3.54-3-2.78-6.29.88-3.76.3-7.83.72-11.72.36-3.33,1.14-6.73,4.8-8.16,5.3-2.08,9-5.94,12.3-10.41,2.84-3.86,6.85-4.69,11.65-4.57a180.93,180.93,0,0,0,19.47-1c5.23-.46,10.51-2.27,15.61-1.8,6.15.56,11.68-.8,17.3-2.48a25.09,25.09,0,0,0,4.91-2.47c8.13-4.59,5.74-12.61.39-17.25a32.56,32.56,0,0,0-12.32-6.46c-4.7-1.31-9.84-1.3-14.78-1.33-6.65,0-13.3.36-19.93.74-5.94.35-11.88,1.39-17.81,1.24-7.82-.2-15.64-1.07-23.41-2-11.15-1.34-22.23-3.35-33.41-4.31-4-.33-8.11,1.6-12.2,2.49-12.72,2.67-24.82.13-37-3.66-4.31-1.35-9.14-1-13.71-1.66-11-1.51-22-.31-33,.65-7.33.64-14.52,2.72-21.81,3.91-4.74.8-9.61,1.69-14.3,1.45a22.48,22.48,0,0,1-9.87-3.47c-5.68-3.37-10.83-7.6-16.51-11-4.44-2.65-8.29-5.44-11-10.09-2.88-4.87-7-9-10.19-13.71a30.14,30.14,0,0,1-5.18-17.67c.24-11.39,7.35-19.1,14.29-26.91,2.32-2.62,4.8-5.14,6.87-7.92a4.41,4.41,0,0,0,.21-3.56c-1.69-4.76-3.62-9.44-5.47-14.13a67.58,67.58,0,0,1-4.4-24.48c-.06-6.47,1.08-13,2-19.42.8-6.25,1.92-12.46,3.06-18.66s2.72-12.43,3.7-18.7c1.09-7,1.12-13.87-2.83-20.27-1-1.54-.8-3.77-1.19-5.68-2.06-9.49-3.2-19.1-.2-28.5,1.6-5,4.35-9.65,7-14.23,3.15-5.47,6.29-11.05,10.3-15.86,2.09-2.53,5.84-4.27,9.16-5.08,10.35-2.5,20.54-5.47,29.34-11.53,5.86-4,11.47-8.36,13.39-16.32,1.74-7.31,5.11-14.27,8.08-21.24,2.7-6.34,8.25-10.29,14-13.06,7.32-3.51,15.21-6,23-8.26,2.64-.8,6.06-1.24,8.52,1.66.55.64,2,.71,3,.71,7.56,0,15.14,0,22.7-.26,3.89-.11,7.93,0,11.6-1.1,5.3-1.53,10.33-4,15.47-6.09,3.51-1.42,6.91-3.3,10.56-4.12a47,47,0,0,1,21.62.34c3.74.92,7.5,1.75,11.29,2.41,14.47,2.5,24.27,11.71,32.46,22.92,6.22,8.52,11.43,17.81,17.91,26.12,7.42,9.53,15.65,18.41,23.71,27.45a93.86,93.86,0,0,0,11.27,11c6.31,5,13.13,9.32,19.59,14.13,8.16,6.06,15.74,12.62,21.87,20.95,8.1,11,11.72,23.49,13.61,36.64.75,5.23.41,10.6.8,15.89.41,5.83.84,11.68,1.65,17.46,1.88,13.43,9.1,24.47,15.93,35.77,2.83,4.68,4.08,10.3,6.1,15.47,3.53,9.07,1.93,18.57,2.52,27.89a39,39,0,0,0,10.56,24.94c4.35,4.6,8.85,9.07,13.54,13.85l-4.81,2.7c-5.42-4.19-11.21-8-14.94-14.24-2.06-3.43-5.15-6.25-7.2-9.69-4.54-7.71-4.19-16.4-4.21-24.94a70.05,70.05,0,0,0-9.61-35.58c-.88-1.52-2.57-2.56-3.9-3.82m-268,314.92c1,.93,1.35,1.36,1.8,1.7,6.76,5.14,13.51,10.3,20.33,15.38,3.84,2.86,7.81,5.6,11.71,8.35,8.64,6.16,17.16,12.5,26,18.41,3.29,2.22,7.2,3.49,10.87,5.2,7.13,3.35,14.41,6.25,22.5,5.78A73.52,73.52,0,0,0,1076,669a87.6,87.6,0,0,0,20.48-10.24c4.72-3.14,8.56-7.57,12.91-11.28,6.69-5.69,13.49-11.21,20.23-16.87q9.84-8.21,19.62-16.5a27.55,27.55,0,0,0,2.4-2.67l-28.33.75c-11.21.29-22.42.62-33.63.8-12.61.25-25.22.21-37.81.64-9.75.32-19.48,1.18-29.22,1.76-8.81.54-17.61,1.15-26.42,1.5C985.29,617.35,974.4,617.53,962.72,617.83ZM871.33,408.69a21.45,21.45,0,0,0,1.13-3.21c1.22-6.8,2.62-13.61,3.48-20.44s1.91-13.94,1.49-20.81c-.32-5.13,1.6-10.94-2.75-15.57q-2.13,3-4.54,5.78c-6.9,7.2-14.58,13.71-15.3,25-.39,6.06,1.81,11,4.71,15.53C862.63,399.78,867,403.77,871.33,408.69Zm356.77-4c.12-9.34,1.61-17.28-3.09-25.34-4.94-8.45-11.73-12-20.81-12.42-3-.14-3.74,1.6-2.27,4.4,2,3.88,3.89,7.86,6,11.69a29.46,29.46,0,0,0,4.37,6.36c4.8,4.92,9.88,9.61,15.8,15.29Z" transform="translate(-230.18 -24.14)"/><path id="Path_9" data-name="Path 9" class="cls-3" d="M1266.06,548c-1.47,1-2.74,2.63-4.16,2.78-3,.28-6.05-.42-9.07-.3-6.87.28-13.74.73-20.6,1.28a108.62,108.62,0,0,0-12.72,1.6c-5.44,1.1-10.79,2.63-16.17,4-8,2.06-16,4.22-24,6.11-.75.18-2.41-1.1-2.73-2-.71-1.93-1.75-4.52-1-6.06,2.3-4.89,4.72-10,8.28-13.94,4.73-5.25,10.65-9.3,18.07-10.41q7.14-1.08,14.18-2.75c4.15-1,8.17-2.94,12.36-3.34a17.71,17.71,0,0,1,9.61,2c6.6,3.53,12.9,7.66,19.17,11.77,2.63,1.73,6.28,2.2,7.57,5.71C1265.17,545.33,1265.48,546.27,1266.06,548Zm-15.71-5.43c-3.16-2.31-5.31-4.29-7.81-5.61-5.6-3-11.21-6.07-18.06-2.8a49.77,49.77,0,0,1-18.91,4.71,22.31,22.31,0,0,0-9.61,2.4c-4,2.18-8.55,4.1-9.8,9.4-.23.93-1.6,1.6-2.53,2.4.49.47,1,1.2,1.22,1.13,21.2-5.66,42.39-11.41,65.5-11.63Z" transform="translate(-230.18 -24.14)"/><path id="Path_10" data-name="Path 10" class="cls-3" d="M1156.52,357.72c-4.73-.75-9.44-1.85-14.2-2.16-8.81-.57-17.77-1.94-26.31-.62-10.63,1.6-20.9,5.6-31.29,8.66-2.22.66-4.27,1.95-6.51,2.46-1,.23-3.2-.73-3.2-1.15,0-2.22-2-5.24,1.55-6.46s7.46-2.16,11.21-3.25c7.43-2.18,14.82-4.5,22.3-6.52a34.23,34.23,0,0,1,9.48-1.53c8.4.22,16.81.68,25.15,1.49a90.45,90.45,0,0,1,14,2.83,3.56,3.56,0,0,1,1.88,2.95C1160.14,356.47,1160.33,359.82,1156.52,357.72Z" transform="translate(-230.18 -24.14)"/><path id="Path_11" data-name="Path 11" class="cls-3" d="M948.36,410.68c-6.41-2.33-12.65-5.35-19.83-4.75-1,.09-2.16-2-3.25-3.09,1.52-1.37,3.09-4,4.56-3.92a65.46,65.46,0,0,1,29.62,8.81c8.41,4.73,16.82,3.2,25.11-.12,4.41-1.77,8.48-4.37,12.81-6.4,1-.46,2.28-.16,3.42-.21,0,1.12.39,2.4,0,3.32-2.75,6-8.74,7.67-14.15,9.44-6.08,2-12.54,2.8-18.86,4-.8.16-1.7-.36-2.56-.56" transform="translate(-230.18 -24.14)"/><path id="Path_12" data-name="Path 12" class="cls-3" d="M1152.78,402.83c-.49,6.56-5.29,8.21-9,10.34-7.2,4.16-15.5,4.46-23.49,4.3-6.76-.14-13.5-1.83-20.22-3-2.87-.52-4.85-4-3.89-6.5s2.73-3.32,5-1.79c6.46,4.36,13.84,4.76,21.15,4.49a87.58,87.58,0,0,0,16.82-2.34c3.34-.8,6.35-3,9.57-4.41A28,28,0,0,1,1152.78,402.83Z" transform="translate(-230.18 -24.14)"/><path id="Path_13" data-name="Path 13" class="cls-3" d="M981.1,388a38.47,38.47,0,0,1-6.13,1c-5.54.06-11.11.18-16.62-.31-6.08-.55-11.69.7-17.29,2.79-.8.29-3-1-3.17-1.77-.33-2.17-.35-4.52,2.8-5.3,10-2.46,20-4.25,30.34-2.6,2.25.36,4.61.45,6.67,1.27,1.5.58,2.61,2.16,3.89,3.3Z" transform="translate(-230.18 -24.14)"/><path id="Path_14" data-name="Path 14" class="cls-3" d="M1094.65,389.16c-.32-4.53,1-6.89,4.25-7.79,12.16-3.41,24.37-4.41,36.46.18.89.34,1.4,2.64,1.38,4,0,.63-1.89,1.89-2.71,1.73-8.06-1.49-16.14-2.32-24.3-1.24-3.54.47-7,1.32-10.54,2C1097.74,388.38,1096.31,388.79,1094.65,389.16Z" transform="translate(-230.18 -24.14)"/><path id="Path_15" data-name="Path 15" class="cls-3" d="M1254.29,572.74a17.48,17.48,0,0,1-13.14,2.61c-4.76-.81-9.07.71-13.07,3.09-2.6,1.56-5.53.48-6-2.4-.25-1.36-1.15-3.67-.8-3.9a27.25,27.25,0,0,1,7.75-3.46c6.67-1.45,13.5-2.21,20.15-.07C1251,569.17,1252.48,571.21,1254.29,572.74Z" transform="translate(-230.18 -24.14)"/><path id="Path_16" data-name="Path 16" class="cls-3" d="M1233.89,502c-.36-.75-1.27-1.87-1.34-3.05s.11-3.34,1-4c4-3,5.7-7.21,7-11.64.61-2.08.46-4.47,1.43-6.3.75-1.41,2.25-3.7,4.63-1.9,1.93,1.45,4.81,2.4,2.84,6-2.41,4.56-4.52,9.32-6.54,14.07C1241.6,498.29,1237,502.43,1233.89,502Z" transform="translate(-230.18 -24.14)"/></g></g></svg>