<svg id="Layer_1" data-name="Layer 1" xmlns="http://www.w3.org/2000/svg" width="779.72" height="1006.26" viewBox="0 0 779.72 1006.26"><defs><style>.cls-1{fill:#eae8df;}.cls-2{fill:#770505;}</style></defs><path id="Path_18" data-name="Path 18" class="cls-1" d="M904.51,1021.52c4.24,11.89,19.68,22.27,34,20.22,12.72-1.83,20.18-12.89,24.37-19.1,11.41-16.9,9.5-31.77,12.45-43.48,8.77-34.81,42.16-60.32,78-71.2s74.13-9.68,111.56-8.29,75.71,2.79,111.63-7.73c51.32-15,94-55.26,110.23-104,18.37-55.07,3.78-115.29-21.18-167.53s-59.91-99.62-85.12-151.75c-33.74-69.77-49.22-146.27-75.26-219S1139.44,104.44,1072,62.48c-47.72-29.68-116.27-39.64-159.82-3.81C870.44,93,868.38,152.36,850.64,202c-15.48,43.31-45.2,82-83.89,109.24-33,23.2-72.15,38.27-102,65.1C613,423,599.84,504,634.64,562.63c72.5,122.06,264.73,86.69,309.26,212.14,11.84,33.36,32.72,137.11-15.44,194.69C920.05,979.52,897.67,1002.34,904.51,1021.52Z" transform="translate(-615.22 -35.74)"/><g id="Group_18" data-name="Group 18"><g id="face"><path id="Path_8" data-name="Path 8" class="cls-2" d="M1149.66,384.6c-2.77-5.63-3.82-11.73-4.45-17.86-.87-8.38-.78-16.86-2.16-25.15-1.07-6.36-3.83-12.42-5.79-18.63-2.8-8.89-9.7-14.72-16-20.79-3.84-3.67-8.89-6-13.17-9.28-4.54-3.46-8.89-7.24-13.25-11a74.18,74.18,0,0,1-7-6.59c-4.16-4.65-8.39-9.28-12.08-14.3-5.12-7-9.6-14.41-14.65-21.41-4.84-6.69-10-13.19-16.71-18.16a16.15,16.15,0,0,0-5.19-2.36c-4.72-1.3-9.45-3.08-14.27-3.44-6-.45-12.11-2.2-18,1.33-3.74,2.24-8.06,3.54-12.17,5.14A44.47,44.47,0,0,1,979,225c-6.65.08-13.29.33-19.94.42-1.17,0-2.91.07-3.43-.61-2.9-3.85-6.53-1.73-9.34-.76a114.62,114.62,0,0,0-15.52,7.19c-5,2.66-6.66,7.79-8.56,12.66-2.17,5.56-4.11,11.23-6.61,16.64-1.74,3.78-5.41,5.84-8.79,8.19-6,4.25-12.83,6.57-19.65,9-2.65.93-5.23,2.07-7.89,2.95-5.18,1.71-7,6.49-9.57,10.52-3.85,6.06-7.09,12.56-8.43,19.67a33.08,33.08,0,0,0,.12,10.41,61.37,61.37,0,0,0,2.51,10.34c2.07,6.59,2.88,13.1.86,19.92-1.13,3.82-1.33,7.91-2.06,11.86-1,5.14-2.27,10.22-3,15.39-1.82,12.5-1.1,24.79,3.82,36.61.49,1.17,1,2.34,1.43,3.53a12.78,12.78,0,0,0,1.94,3.89c1.22-2.92,2.82-5.75,3.58-8.79,1.57-6.17,4.94-11.25,8.92-16,7-8.27,11.15-18,15.25-27.85a84.27,84.27,0,0,1,8.73-15.56,61.64,61.64,0,0,1,10.85-12.29,35.31,35.31,0,0,1,12.1-6.32,152.1,152.1,0,0,1,22.3-5.06c10-1.45,16.63-7.83,23.23-14.54,3.79-3.84,5.59-8.7,6.67-13.62,1.71-7.86,2.64-15.89,3.89-23.86a17.46,17.46,0,0,0,0-2.8c4.19-2.35,6.56-1.34,8,3,4.47,13.43,8.66,27.06,17.21,38.62,5.46,7.37,11.37,14.22,19.58,19.11,4.95,2.95,9.91,4.13,15.29,4.81,7.32.91,13.54,4.28,19.69,8.19,10.79,6.85,15.78,17.88,21.54,28.44,3.38,6.19,6.69,12.48,10.84,18.16,2.59,3.52,6.44,6.21,10.08,8.78,6,4.21,12,8.43,16.48,14.27a25.24,25.24,0,0,1,5.34,13c.3,3.1,1.43,6.12,2.06,8.62,5.11.64,9.77,1,14.36,1.79,6.63,1.17,9.86,6.58,12.66,11.75,1.82,3.37,2.52,7.56,2.83,11.45.29,3.67-.65,7.44-.91,11.19a15.51,15.51,0,0,0,.57,3.59c.17.91.82,2.32.48,2.63a5.2,5.2,0,0,1-3.25,1.29,5.64,5.64,0,0,1-3.17-1.29c-4.86-3.89-9.88-7.62-14.36-11.9-5.16-4.91-8.44-11.27-10.78-17.86-2.86-8.07-4.51-16.58-7.44-24.61a27.79,27.79,0,0,0-7-10.38c-4.5-4.19-9.93-7.36-14.69-11.28a57.08,57.08,0,0,1-7.31-7.68,56.2,56.2,0,0,1-6-8.24c-4.15-7.43-7.71-15.21-12.09-22.51-6.45-10.82-15.53-18.58-27.93-21.81-4-1-8.27-1.1-12-2.67a71.64,71.64,0,0,1-15.37-8.48c-8.55-6.48-14.42-15.41-19.54-24.77-2.38-4.37-4.76-8.77-6.71-13.34-1.55-3.64-2.44-7.55-4.44-11.39-.17,1.07-.28,2.15-.51,3.21-1.53,7-3,14.09-4.65,21.1-1.3,5.5-5.19,9.41-9.08,13.14A47.8,47.8,0,0,1,962,332a56.59,56.59,0,0,1-12.38,4.28c-7.73,2-15.7,3.25-23.31,5.61-7.46,2.34-12.44,8.27-17.17,14.27-4.87,6.18-8.25,13.11-11.27,20.39-4.76,11.4-10.66,22.24-19,31.65a15.65,15.65,0,0,0-3.34,7.63c-.65,4.22-3.11,7.34-5.05,10.83A4.59,4.59,0,0,0,870,430c3.1,7.53,3.15,15.44,2.9,23.32-.12,3.81-1.21,7.58-1.86,11.37-1,5.86-2.1,11.72-3,17.61a3.47,3.47,0,0,0,1.62,2.84c5,2,9.5,4.54,13.12,8.8,2.11,2.48,5.4,3,8.81,2.35,7.61-1.35,15.25-2.51,22.88-3.66,9.08-1.36,18.26-2.29,27.5-1.29,4.11.44,8.3.46,12.36,1.21,5.08.93,10,3,15.1,3.52,4.69.51,9.55-.1,14.27-.59a94.85,94.85,0,0,0,9.86-2,55.18,55.18,0,0,1-11.15-22.29c-.51-2.11-.83-4.26-1.36-6.36-1.42-5.61-5.59-7.72-10.77-9.26-4.07-1.22-7.6-4.26-11.67-5.46a136.06,136.06,0,0,0-17.95-3.58c-11-1.67-21.44,2.59-32.17,3.72-9,1-18.39,1.41-26.16-4.95-.74-.61-1.36-2.74-1.05-3,1.3-1.11,2.4-3.65,4.71-2,3.24,2.34,6.68,4.34,10.66,4.47,5.34.16,10.68.57,16.08-.65a165.66,165.66,0,0,1,21-3.46,62.68,62.68,0,0,1,25.54,3c4.12,1.35,7.79,4,11.77,5.83,1.8.85,3.89,1.07,5.78,1.74,4.62,1.59,6.46,5.76,8,9.73s1.95,8.08,3.09,12.1a29.32,29.32,0,0,0,2.34,5.54c3,5.68,6.21,11.23,11.43,15.24a4.1,4.1,0,0,0,1.77.6c5.23.93,10.45,1.92,15.7,2.7,9.36,1.4,18.7,3,28.26,1.6s19-2,28.49-.71c4.78.65,9.88,1,14.14,3,6.87,3.24,11.72,8.8,12.1,17,.28,6.19-4.31,8.81-9,10.84a38.66,38.66,0,0,1-19.85,3.11c-3.77-.39-7.73,1.46-11.64,1.71-4.9.32-9.86-.13-14.78,0-3.16.12-5.53,1.79-7.31,4.54a20.57,20.57,0,0,1-10.53,8.52,40,40,0,0,1-.37,4.37c-1.14,5.93-.72,6.86,4.62,9.73,2.75,1.49,5.52,2.94,8.22,4.54,5.26,3.09,5.68,8.48,6.42,13.72.8,5.6-2.22,10.23-3.89,15.18a84.33,84.33,0,0,1-3.75,8.23c.31,0,.69,1.41,1,1.4.8,1.44,1.36,1.58,2.37,2.84,2.78,3.46,5.64,6.9,10.41,7.65,6.29,1,12.64,3,18.87,2.69,9.64-.49,18.07,3.24,26.94,5.55,7.34,1.95,14.67,3.89,21.91,6.18,4.38,1.39,8.49,3.67,12.89,5a65.72,65.72,0,0,0,11.39,2.05,103.1,103.1,0,0,0,15,1c9.12-.32,18.32-1.21,25.86-7.13a183.76,183.76,0,0,0,15.31-13.52c3.48-3.41,7.35-7,9.21-11.31,1.67-3.89,5.19-6.26,6.32-10.48.7-2.67,3.5-4.75,5.22-7.19,7.54-10.72,13.26-22.44,15.51-35.3,2.48-14.11,5.08-28.39,3-42.85a192.11,192.11,0,0,0-4.38-23.08c-1.48-5.37-4.11-11-10.38-12.27-4.23-.86-8.74-.48-13.12-.43-2.51,0-5,.78-7.51.8-6.87.07-13.16,2.7-19.74,4.08-3.94.83-5.33,2.89-6.07,6.53a39.74,39.74,0,0,1-3.37,9.21c-3,6.16-7,11.74-12.89,15.33a111,111,0,0,1-15.47,7.4c-6.77,2.8-11,7.72-13.54,14.4a23.38,23.38,0,0,0-.19,16.36,2.22,2.22,0,0,1-.43,2c-.54.39-1.94.54-2.22.18-1.55-1.86-3.85-3.79-4.11-5.92-1.21-9.73,1.18-18.72,7.87-26.16,4.06-4.54,10-5.94,15.17-8.66,5.36-2.8,11.68-5.23,15.22-9.69,4.67-5.83,9.4-12.32,10.34-20.37a14.38,14.38,0,0,0-.65-3.66c4.06-1.4,8.11-3.35,12.37-4.14,9.59-1.79,19.27-3.34,29-4.32,6.86-.7,13.62.47,18.4,6.32s8.83,12,9.09,20.05c.11,3.49,1.18,6.95,1.76,10.43a27.3,27.3,0,0,1,.42,4.22c0,5.37,1.53,10.63.38,16.11-.65,3.12.12,6.49-.06,9.77-.11,1.87-.95,3.68-1.3,5.54-.61,3.42-1.29,6.85-1.61,10.3-.94,9.4-4.14,18-8.54,26.32-2.23,4.19-3.86,8.73-6.37,12.73-4,6.36-8.31,12.53-12.83,18.53A134.15,134.15,0,0,1,1204,622.19c-6.72,6.62-13.76,13-22.76,16.59a60.26,60.26,0,0,1-22.15,4.31c-5.6,0-11.19-.92-16.79-1-7.23-.07-14.48.11-21.7.57a127.49,127.49,0,0,0-16.87,2.11,21.21,21.21,0,0,0-8.23,3.8c-5.32,4-10.26,8.54-15.43,12.75-2.68,2.18-5.64,4-8.27,6.26-4.33,3.69-8.54,7.52-12.69,11.41-1.21,1.13-4.2,3.08-4.94,4.3-1.11,1.83-2.83,2.47-4.35,3.47-4.42,2.91-8.78,6-13.51,8.32a51.29,51.29,0,0,1-13.63,4.58,53.53,53.53,0,0,1-16.13.52c-4.81-.69-9.39-3.1-14-4.85-8.69-3.24-15.82-9.08-23.19-14.48-9.08-6.64-18-13.45-27.15-20a69,69,0,0,0-9.47-5.55,7.28,7.28,0,0,0-4.13-.33c-3.21.51-4.61-.82-5.33-5.46-.53-3.42,0-4.11,3.47-4.36,5.89-.41,11.78-.82,17.68-1.1,11.92-.59,23.85-1,35.76-1.68,7.78-.44,15.57-1.46,23.35-1.71,9.19-.31,18.4,0,27.6-.08,4.43,0,8.85-.39,13.28-.46,6.89-.09,13.77.11,20.65-.13,7.7-.27,15.4-.93,23.1-1.35,2-.1,4,.14,6,0q14-.7,28-1.52a12.39,12.39,0,0,0,2.75-.93c-10.76-3.17-20.66-6.07-30.54-9-5.16-1.53-10.22-3.51-15.46-4.54-3.82-.77-7.89-.25-11.84-.5-3.33-.21-6.65-.61-9.94-1.14-2.34-.38-4.6-1.22-6.93-1.66-6.49-1.2-9.88-6.48-14-10.62-2.6-2.59-1.68-10.9.6-14.54,4-6.42,6.49-13.51,4.75-21.05-.49-2.14-3.77-3.83-6-5.33-2.67-1.78-5.63-3.13-8.47-4.68a7.22,7.22,0,0,1-2.23-1.29c-1.15-1.47-2.87-2.46-2.25-5.1.71-3,.24-6.35.58-9.5.29-2.69.92-5.45,3.89-6.61,4.29-1.68,7.28-4.8,10-8.43,2.31-3.13,5.55-3.79,9.44-3.7a145.71,145.71,0,0,0,15.77-.79c4.24-.37,8.52-1.83,12.65-1.45,5,.45,9.46-.65,14-2a20.56,20.56,0,0,0,4-2c6.59-3.71,4.65-10.21.31-14a26.49,26.49,0,0,0-10-5.24c-3.81-1.05-8-1.05-12-1.07-5.39,0-10.77.3-16.15.6-4.81.28-9.62,1.13-14.42,1-6.34-.17-12.67-.87-19-1.63-9-1.08-18-2.71-27.06-3.48-3.24-.28-6.57,1.29-9.88,2-10.31,2.16-20.11.11-30-3-3.5-1.09-7.41-.83-11.12-1.34-8.93-1.22-17.85-.25-26.72.52-5.95.52-11.77,2.21-17.68,3.18a54.38,54.38,0,0,1-11.58,1.17,18.27,18.27,0,0,1-8-2.81c-4.6-2.73-8.78-6.16-13.38-8.88-3.6-2.14-6.72-4.41-8.94-8.18-2.33-3.94-5.69-7.26-8.25-11.1a24.4,24.4,0,0,1-4.2-14.32c.2-9.22,6-15.47,11.58-21.8,1.88-2.12,3.89-4.16,5.56-6.41a3.55,3.55,0,0,0,.17-2.89c-1.37-3.85-2.92-7.64-4.43-11.44a54.82,54.82,0,0,1-3.56-19.83c-.05-5.24.88-10.51,1.58-15.74.65-5.06,1.56-10.09,2.48-15.11s2.2-10.07,3-15.15c.88-5.65.9-11.24-2.3-16.42-.78-1.25-.65-3.05-1-4.6-1.67-7.69-2.59-15.47-.16-23.09,1.29-4,3.52-7.81,5.66-11.52a89.24,89.24,0,0,1,8.34-12.85c1.7-2.05,4.74-3.46,7.42-4.12,8.39-2,16.64-4.43,23.77-9.34,4.75-3.25,9.3-6.77,10.85-13.22,1.41-5.92,4.14-11.56,6.54-17.21,2.19-5.14,6.69-8.33,11.38-10.58a125.33,125.33,0,0,1,18.64-6.69c2.14-.65,4.9-1,6.9,1.35.44.52,1.62.57,2.46.57,6.13,0,12.27,0,18.39-.21,3.15-.09,6.43,0,9.4-.89,4.29-1.24,8.36-3.25,12.53-4.93,2.85-1.15,5.6-2.68,8.56-3.34a38.09,38.09,0,0,1,17.51.28c3,.74,6.08,1.41,9.15,1.94,11.72,2,19.66,9.49,26.3,18.57,5,6.91,9.25,14.43,14.5,21.16,6,7.72,12.68,14.92,19.21,22.24a74.78,74.78,0,0,0,9.13,8.93c5.11,4,10.63,7.55,15.87,11.44,6.61,4.91,12.75,10.23,17.71,17,6.57,8.92,9.5,19,11,29.68.61,4.23.33,8.59.65,12.87.33,4.72.68,9.46,1.33,14.14,1.53,10.88,7.38,19.82,12.91,29,2.29,3.79,3.31,8.34,4.94,12.53,2.86,7.35,1.57,15.05,2,22.6a31.65,31.65,0,0,0,8.55,20.2c3.53,3.73,7.18,7.35,11,11.22l-3.89,2.19c-4.39-3.4-9.08-6.49-12.1-11.54-1.68-2.78-4.17-5.06-5.84-7.85-3.68-6.24-3.39-13.29-3.41-20.2a56.75,56.75,0,0,0-7.78-28.83c-.71-1.23-2.08-2.07-3.16-3.09M937.23,649.86a18.77,18.77,0,0,0,1.46,1.38c5.48,4.16,10.95,8.35,16.47,12.46,3.11,2.32,6.33,4.54,9.49,6.76,7,5,13.9,10.13,21,14.92,2.67,1.8,5.84,2.83,8.81,4.21,5.78,2.71,11.68,5.06,18.23,4.69a59.69,59.69,0,0,0,16.28-2.94,71.23,71.23,0,0,0,16.6-8.3c3.82-2.54,6.92-6.13,10.45-9.14,5.42-4.61,10.93-9.08,16.38-13.66s10.62-8.9,15.9-13.37a21.11,21.11,0,0,0,2-2.17l-23,.61c-9.08.24-18.16.5-27.24.65-10.21.2-20.42.17-30.63.52-7.9.26-15.78.95-23.66,1.43-7.14.43-14.28.93-21.41,1.21C955.51,649.48,946.7,649.62,937.23,649.86Zm-74-169.42a18.6,18.6,0,0,0,.93-2.59c1-5.52,2.12-11,2.82-16.56s1.54-11.3,1.2-16.87c-.26-4.15,1.29-8.86-2.23-12.61a59.13,59.13,0,0,1-3.68,4.68c-5.59,5.84-11.81,11.11-12.39,20.24-.31,4.91,1.46,8.92,3.81,12.58C856.15,473.22,859.7,476.46,863.19,480.44Zm289-3.25c.09-7.56,1.3-14-2.5-20.52-4-6.85-9.51-9.73-16.87-10.06-2.43-.12-3,1.29-1.83,3.56,1.64,3.14,3.14,6.37,4.86,9.47a24.17,24.17,0,0,0,3.54,5.15c3.9,4,8,7.79,12.8,12.39Z" transform="translate(-615.22 -35.74)"/><path id="Path_9" data-name="Path 9" class="cls-2" d="M1183,593.25c-1.19.84-2.23,2.14-3.37,2.25-2.42.24-4.91-.33-7.35-.24-5.57.23-11.13.59-16.69,1a86.8,86.8,0,0,0-10.3,1.3c-4.41.89-8.75,2.13-13.11,3.24-6.48,1.67-12.93,3.42-19.45,4.95-.61.14-2-.9-2.21-1.65-.58-1.56-1.42-3.66-.83-4.91,1.87-4,3.83-8.09,6.71-11.29,3.83-4.25,8.62-7.53,14.64-8.43,3.85-.59,7.69-1.33,11.48-2.23,3.37-.79,6.62-2.38,10-2.71a14.49,14.49,0,0,1,7.78,1.62c5.35,2.86,10.45,6.21,15.53,9.54,2.13,1.41,5.09,1.78,6.13,4.63C1182.24,591.13,1182.5,591.89,1183,593.25Zm-12.73-4.39c-2.56-1.87-4.3-3.47-6.33-4.54-4.54-2.46-9.08-4.92-14.62-2.27a40.54,40.54,0,0,1-15.32,3.81,18.09,18.09,0,0,0-7.79,1.95c-3.2,1.76-6.92,3.32-7.94,7.61-.18.75-1.3,1.3-2,2,.39.37.78,1,1,.9,17.17-4.58,34.34-9.23,53.06-9.41Z" transform="translate(-615.22 -35.74)"/><path id="Path_10" data-name="Path 10" class="cls-2" d="M1094.23,439.15c-3.84-.6-7.65-1.5-11.5-1.75-7.14-.46-14.4-1.57-21.32-.5-8.61,1.29-16.93,4.54-25.35,7-1.8.53-3.46,1.57-5.27,2-.8.19-2.59-.59-2.59-.94,0-1.79-1.65-4.24,1.25-5.22s6-1.76,9.08-2.64c6-1.76,12-3.64,18.07-5.28a27.77,27.77,0,0,1,7.68-1.24c6.8.18,13.62.55,20.37,1.2a74.49,74.49,0,0,1,11.36,2.3,2.85,2.85,0,0,1,1.52,2.39C1097.16,438.14,1097.31,440.85,1094.23,439.15Z" transform="translate(-615.22 -35.74)"/><path id="Path_11" data-name="Path 11" class="cls-2" d="M925.6,482.05c-5.19-1.88-10.25-4.33-16.06-3.85-.81.08-1.75-1.62-2.64-2.5,1.24-1.11,2.51-3.24,3.7-3.17a53,53,0,0,1,24,7.14c6.81,3.83,13.62,2.59,20.34-.1,3.58-1.44,6.87-3.54,10.38-5.19a7.62,7.62,0,0,1,2.77-.17c0,.91.31,2,0,2.69-2.23,4.85-7.08,6.22-11.47,7.65-4.92,1.61-10.15,2.27-15.27,3.24a5.49,5.49,0,0,1-2.07-.45" transform="translate(-615.22 -35.74)"/><path id="Path_12" data-name="Path 12" class="cls-2" d="M1091.2,475.7c-.4,5.31-4.28,6.65-7.28,8.37-5.84,3.37-12.56,3.61-19,3.48-5.48-.11-10.94-1.48-16.38-2.46a4.25,4.25,0,0,1-3.16-5.26c.78-2,2.22-2.69,4.06-1.45,5.23,3.53,11.2,3.85,17.13,3.64a71.14,71.14,0,0,0,13.62-1.9c2.71-.65,5.15-2.41,7.75-3.58A23,23,0,0,1,1091.2,475.7Z" transform="translate(-615.22 -35.74)"/><path id="Path_13" data-name="Path 13" class="cls-2" d="M952.12,463.71a31.66,31.66,0,0,1-5,.84c-4.48.05-9,.14-13.46-.25a31.27,31.27,0,0,0-14,2.26,3,3,0,0,1-2.56-1.44c-.27-1.75-.29-3.66,2.26-4.29,8.1-2,16.22-3.44,24.59-2.11a26.59,26.59,0,0,1,5.4,1c1.21.47,2.11,1.75,3.15,2.67Z" transform="translate(-615.22 -35.74)"/><path id="Path_14" data-name="Path 14" class="cls-2" d="M1044.11,464.62c-.26-3.67.83-5.58,3.44-6.31,9.85-2.76,19.75-3.57,29.53.15.73.27,1.14,2.13,1.13,3.24,0,.51-1.54,1.53-2.2,1.4a62.33,62.33,0,0,0-19.69-1c-2.87.37-5.7,1.07-8.54,1.64C1046.61,464,1045.45,464.32,1044.11,464.62Z" transform="translate(-615.22 -35.74)"/><path id="Path_15" data-name="Path 15" class="cls-2" d="M1173.43,613.33a14.12,14.12,0,0,1-10.65,2.12c-3.85-.65-7.34.57-10.58,2.51-2.11,1.26-4.48.39-4.9-2-.2-1.1-.94-3-.65-3.16a21.87,21.87,0,0,1,6.28-2.8c5.4-1.18,10.93-1.79,16.32-.06C1170.8,610.45,1172,612.1,1173.43,613.33Z" transform="translate(-615.22 -35.74)"/><path id="Path_16" data-name="Path 16" class="cls-2" d="M1156.9,556a6.94,6.94,0,0,1-1.08-2.47c-.07-1.08.09-2.7.8-3.24,3.24-2.41,4.61-5.84,5.66-9.43.5-1.68.37-3.62,1.16-5.1.61-1.14,1.82-3,3.75-1.54,1.57,1.17,3.9,1.94,2.3,4.89-1.94,3.69-3.66,7.55-5.29,11.4C1163.15,553,1159.39,556.38,1156.9,556Z" transform="translate(-615.22 -35.74)"/></g></g></svg>