<svg id="Layer_1" data-name="Layer 1" xmlns="http://www.w3.org/2000/svg" width="257" height="217.64" viewBox="0 0 257 217.64"><defs><style>.cls-1{fill:none;stroke:#182c5e;stroke-miterlimit:10;stroke-width:3px;}</style></defs><g id="Group_8" data-name="Group 8"><path id="Path_29" data-name="Path 29" class="cls-1" d="M91,2c.91,4.85,4.36,8.77,7.74,12.36,4,4.21,8.21,8.42,13.5,10.78a37,37,0,0,0,11.73,2.69c6.35.58,12.91.41,18.88-1.82C153.67,22,160.94,11.88,167.16,2.09l-.13.23A283.33,283.33,0,0,1,198.8,9.65L212,13.25l31.6,8.59a69.59,69.59,0,0,1,11.57,3.88,466.31,466.31,0,0,0-11.34,53.73q-22.11-.15-44.21.44l-.51-.23C197.64,85.28,197.81,91.2,198,97q1.65,58.83,1,117.69L79.52,216.11c-6.9.07-13.87.15-20.62-1.3-3.19-27.26,1.26-54.83.51-82.28-.49-17.75-3.14-35.53-1.33-53.2h-.59a346.11,346.11,0,0,1-43.21-.39A192.3,192.3,0,0,0,1.74,26.21L2,26c31.05-1.9,58.9-18,88.41-24.5"/></g></svg>