<svg xmlns="http://www.w3.org/2000/svg" width="411.8" height="501.99" viewBox="0 0 411.8 501.99"><defs><style>.cls-1{fill:#9d9a88;}</style></defs><g id="Layer_2" data-name="Layer 2"><g id="Layer_1-2" data-name="Layer 1"><g id="Group_18" data-name="Group 18"><g id="face"><path id="Path_8" data-name="Path 8" class="cls-1" d="M311.47,179c-2.84-5.75-3.91-12-4.56-18.25-.88-8.56-.79-17.24-2.21-25.71-1.09-6.49-3.91-12.69-5.91-19-2.86-9.08-9.91-15-16.39-21.24-3.93-3.76-9.09-6.16-13.47-9.49-4.64-3.54-9.09-7.4-13.53-11.22a75,75,0,0,1-7.19-6.73c-4.25-4.75-8.57-9.49-12.35-14.62-5.23-7.12-9.81-14.72-15-21.87C216,24,210.7,17.38,203.81,12.3a16.74,16.74,0,0,0-5.3-2.41c-4.82-1.32-9.66-3.15-14.59-3.51-6.1-.46-12.38-2.26-18.43,1.36-3.83,2.29-8.25,3.61-12.44,5.25a45.26,45.26,0,0,1-16,3c-6.8.08-13.59.34-20.38.43-1.2,0-3,.07-3.51-.63-3-3.93-6.68-1.77-9.55-.77a116.54,116.54,0,0,0-15.85,7.35c-5.17,2.72-6.82,8-8.76,12.94-2.22,5.69-4.2,11.47-6.75,17-1.79,3.87-5.53,6-9,8.36C57.05,65,50.13,67.38,43.16,69.82c-2.71,1-5.34,2.12-8.06,3-5.31,1.75-7.19,6.63-9.79,10.75-3.94,6.2-7.24,12.84-8.62,20.11a33.94,33.94,0,0,0,.13,10.64,63.12,63.12,0,0,0,2.56,10.57c2.12,6.73,2.95,13.38.88,20.36-1.15,3.9-1.36,8.08-2.11,12.12-1,5.25-2.31,10.44-3.08,15.73-1.86,12.77-1.13,25.33,3.9,37.42.51,1.19,1,2.39,1.46,3.61a13.46,13.46,0,0,0,2,4c1.25-3,2.88-5.88,3.66-9,1.6-6.31,5-11.5,9.12-16.32,7.14-8.45,11.39-18.38,15.58-28.46a86,86,0,0,1,8.92-15.91A63.46,63.46,0,0,1,70.79,135.9a36.18,36.18,0,0,1,12.37-6.46A154.94,154.94,0,0,1,106,124.26c10.28-1.48,17-8,23.75-14.86,3.87-3.93,5.71-8.89,6.81-13.92,1.75-8,2.7-16.24,4-24.38a18.19,18.19,0,0,0,0-2.86c4.28-2.41,6.7-1.37,8.18,3.06C153.2,85,157.48,99,166.23,110.77c5.58,7.54,11.62,14.54,20,19.53,5,3,10.12,4.23,15.62,4.92,7.49.93,13.85,4.38,20.13,8.37,11,7,16.12,18.27,22,29.07,3.45,6.32,6.83,12.75,11.07,18.56,2.65,3.59,6.58,6.35,10.31,9,6.12,4.31,12.28,8.62,16.84,14.59A25.82,25.82,0,0,1,287.69,228c.3,3.17,1.46,6.25,2.1,8.81,5.22.66,10,1,14.68,1.83,6.78,1.2,10.08,6.73,12.94,12,1.86,3.44,2.58,7.72,2.9,11.7.3,3.76-.67,7.61-.93,11.44a15.27,15.27,0,0,0,.58,3.67c.17.93.84,2.37.49,2.68a5.35,5.35,0,0,1-3.32,1.33,5.83,5.83,0,0,1-3.25-1.33c-5-4-10.09-7.79-14.68-12.16-5.27-5-8.61-11.51-11-18.25-2.92-8.25-4.6-16.94-7.6-25.16a28.47,28.47,0,0,0-7.18-10.6c-4.6-4.29-10.15-7.53-15-11.54a57.78,57.78,0,0,1-7.47-7.85,56.07,56.07,0,0,1-6.1-8.42c-4.25-7.58-7.89-15.54-12.37-23-6.59-11.06-15.87-19-28.54-22.29-4-1-8.45-1.12-12.22-2.73A73.12,73.12,0,0,1,176,129.52c-8.75-6.63-14.75-15.76-20-25.32-2.44-4.47-4.87-9-6.86-13.64-1.59-3.72-2.5-7.72-4.54-11.64-.18,1.09-.29,2.2-.53,3.28-1.55,7.19-3.05,14.4-4.75,21.57-1.32,5.62-5.3,9.61-9.28,13.42a48.55,48.55,0,0,1-10.38,8c-3.81,2-8.33,3.26-12.65,4.38-7.91,2-16,3.31-23.82,5.73s-12.72,8.45-17.55,14.58c-5,6.32-8.43,13.4-11.53,20.84-4.86,11.65-10.89,22.74-19.37,32.36a16,16,0,0,0-3.4,7.79c-.66,4.32-3.18,7.5-5.17,11.07a4.7,4.7,0,0,0-.55,3.48c3.17,7.69,3.23,15.77,3,23.83-.13,3.89-1.24,7.75-1.91,11.62-1,6-2.14,12-3,18a3.55,3.55,0,0,0,1.66,2.9c5.15,2,9.7,4.64,13.4,9,2.16,2.54,5.52,3,9,2.41,7.77-1.38,15.58-2.57,23.38-3.74,9.28-1.39,18.66-2.34,28.1-1.32,4.21.45,8.5.47,12.65,1.24,5.19,1,10.21,3,15.42,3.59,4.8.53,9.77-.1,14.59-.6A94.43,94.43,0,0,0,152,290.33a56.49,56.49,0,0,1-11.4-22.79c-.51-2.15-.85-4.35-1.39-6.5-1.45-5.73-5.71-7.89-11-9.46-4.15-1.24-7.76-4.36-11.93-5.58a139.38,139.38,0,0,0-18.34-3.66C86.62,240.64,76,245,65,246.15c-9.2,1-18.79,1.43-26.74-5.07-.75-.62-1.39-2.8-1.07-3.08,1.33-1.14,2.46-3.73,4.82-2,3.31,2.38,6.83,4.43,10.89,4.56,5.46.17,10.92.59,16.43-.66a168,168,0,0,1,21.47-3.53,63.83,63.83,0,0,1,26.1,3.07c4.21,1.38,8,4.08,12,6,1.84.86,4,1.1,5.91,1.77,4.72,1.63,6.6,5.89,8.19,9.94s2,8.27,3.16,12.37a30.36,30.36,0,0,0,2.38,5.67c3.06,5.8,6.36,11.47,11.68,15.58a4.42,4.42,0,0,0,1.82.61c5.34.95,10.68,2,16,2.76,9.57,1.43,19.12,3,28.89,1.64s19.4-2,29.11-.73c4.89.66,10.11,1.05,14.46,3.09,7,3.32,12,9,12.37,17.36.28,6.32-4.41,9-9.19,11.08a39.62,39.62,0,0,1-20.3,3.18c-3.85-.41-7.89,1.49-11.89,1.75-5,.32-10.07-.14-15.11,0-3.22.12-5.64,1.82-7.47,4.64a21,21,0,0,1-10.76,8.7,39.24,39.24,0,0,1-.38,4.47c-1.16,6.06-.73,7,4.72,9.94,2.81,1.53,5.65,3,8.41,4.65,5.37,3.15,5.8,8.67,6.56,14,.82,5.72-2.27,10.46-4,15.52a88.12,88.12,0,0,1-3.84,8.41c.32,0,.71,1.44,1,1.43.81,1.46,1.38,1.61,2.41,2.9,2.85,3.53,5.77,7.05,10.65,7.81,6.42,1,12.92,3.08,19.28,2.76,9.86-.51,18.47,3.31,27.53,5.67,7.5,2,15,4,22.39,6.32,4.49,1.41,8.69,3.74,13.18,5.11a65,65,0,0,0,11.65,2.09A103.42,103.42,0,0,0,323.14,437c9.33-.33,18.73-1.24,26.44-7.29a186.48,186.48,0,0,0,15.65-13.82c3.55-3.48,7.51-7.16,9.41-11.55,1.71-4,5.3-6.4,6.45-10.71.73-2.74,3.58-4.86,5.34-7.35,7.71-11,13.56-22.94,15.86-36.08,2.53-14.43,5.19-29,3-43.8a196.14,196.14,0,0,0-4.48-23.58c-1.51-5.49-4.2-11.23-10.61-12.55-4.32-.88-8.93-.49-13.4-.44-2.57,0-5.12.79-7.68.82-7,.07-13.46,2.76-20.17,4.17-4,.84-5.45,2.95-6.22,6.67a39.71,39.71,0,0,1-3.44,9.42c-3.06,6.29-7.15,12-13.17,15.66a113,113,0,0,1-15.81,7.57c-6.92,2.85-11.27,7.89-13.84,14.71a23.88,23.88,0,0,0-.19,16.72,2.35,2.35,0,0,1-.44,2.09c-.56.39-2,.54-2.28.17-1.58-1.89-3.93-3.87-4.2-6-1.23-9.95,1.21-19.14,8.05-26.74,4.15-4.64,10.22-6.07,15.51-8.85,5.47-2.87,11.93-5.35,15.56-9.91,4.76-6,9.6-12.59,10.56-20.82.12-1.11-.4-2.3-.67-3.74,4.16-1.43,8.3-3.42,12.65-4.23,9.8-1.82,19.69-3.41,29.61-4.42,7-.71,13.92.49,18.8,6.47s9,12.28,9.29,20.49c.11,3.57,1.21,7.1,1.8,10.66A28.37,28.37,0,0,1,411,305c0,5.49,1.56,10.86.38,16.46-.66,3.19.13,6.63-.06,10-.11,1.91-1,3.76-1.32,5.67-.64,3.49-1.33,7-1.66,10.52-1,9.61-4.23,18.43-8.73,26.9-2.27,4.28-3.93,8.92-6.5,13-4.08,6.5-8.49,12.81-13.12,18.94A136.13,136.13,0,0,1,367,421.87c-6.87,6.77-14.06,13.3-23.26,17a61.59,61.59,0,0,1-22.63,4.41c-5.73,0-11.45-.95-17.17-1-7.39-.07-14.8.11-22.18.58A131.48,131.48,0,0,0,264.57,445a21.57,21.57,0,0,0-8.41,3.89c-5.45,4.1-10.5,8.72-15.78,13-2.74,2.23-5.77,4.1-8.45,6.39-4.42,3.78-8.73,7.69-13,11.67-1.23,1.15-4.29,3.14-5.05,4.39-1.13,1.87-2.89,2.53-4.44,3.55-4.52,3-9,6.15-13.82,8.5a52.16,52.16,0,0,1-13.92,4.68,54.62,54.62,0,0,1-16.49.53c-4.92-.7-9.6-3.17-14.35-5-8.88-3.32-16.18-9.29-23.7-14.8-9.28-6.8-18.43-13.76-27.74-20.48a71.62,71.62,0,0,0-9.68-5.67,7.46,7.46,0,0,0-4.23-.34c-3.28.53-4.72-.83-5.45-5.58-.54-3.49,0-4.19,3.55-4.45,6-.43,12-.84,18.07-1.13,12.18-.6,24.37-1,36.55-1.72,8-.44,15.91-1.49,23.87-1.75,9.39-.31,18.8,0,28.2-.08,4.53,0,9-.39,13.58-.46,7-.1,14.07.11,21.1-.14,7.87-.28,15.74-.95,23.61-1.38,2-.1,4.11.14,6.16,0q14.32-.72,28.63-1.55a12.54,12.54,0,0,0,2.82-1c-11-3.24-21.12-6.2-31.22-9.2-5.27-1.56-10.44-3.59-15.81-4.64-3.9-.78-8-.25-12.1-.51-3.4-.22-6.79-.62-10.16-1.17-2.38-.38-4.7-1.24-7.08-1.69-6.63-1.23-10.09-6.63-14.34-10.86-2.65-2.65-1.71-11.13.62-14.86,4.11-6.56,6.63-13.8,4.85-21.51-.5-2.19-3.85-3.91-6.15-5.45-2.74-1.82-5.76-3.2-8.66-4.78a7.42,7.42,0,0,1-2.29-1.33c-1.17-1.49-2.93-2.5-2.3-5.2.73-3.11.24-6.49.6-9.71.29-2.75.94-5.57,4-6.76,4.38-1.71,7.45-4.91,10.18-8.61,2.36-3.2,5.67-3.88,9.65-3.78a149.76,149.76,0,0,0,16.12-.81c4.33-.38,8.7-1.88,12.92-1.49,5.1.47,9.68-.66,14.33-2.05a20.9,20.9,0,0,0,4.06-2.05c6.73-3.8,4.76-10.44.32-14.28a26.92,26.92,0,0,0-10.19-5.35C239.66,299,235.4,299,231.3,299c-5.5,0-11,.3-16.5.61-4.92.29-9.83,1.16-14.74,1-6.48-.17-12.95-.89-19.38-1.66-9.24-1.1-18.41-2.78-27.66-3.56-3.32-.28-6.72,1.32-10.1,2.06-10.54,2.21-20.55.1-30.64-3-3.57-1.12-7.57-.86-11.35-1.37-9.14-1.25-18.25-.25-27.32.54-6.07.52-12,2.25-18.07,3.24-3.91.66-7.95,1.4-11.83,1.2a18.91,18.91,0,0,1-8.17-2.87c-4.7-2.79-9-6.3-13.67-9.08-3.68-2.19-6.87-4.51-9.14-8.36-2.38-4-5.82-7.42-8.43-11.35A25,25,0,0,1,0,251.78c.2-9.43,6.08-15.81,11.83-22.28,1.92-2.17,4-4.26,5.69-6.56A3.65,3.65,0,0,0,17.7,220c-1.4-3.94-3-7.81-4.53-11.69A56.17,56.17,0,0,1,9.53,188c0-5.36.9-10.74,1.62-16.09.66-5.17,1.59-10.31,2.53-15.44s2.25-10.29,3.06-15.49c.9-5.77.93-11.48-2.34-16.78-.8-1.28-.67-3.12-1-4.7-1.71-7.86-2.65-15.81-.16-23.59,1.33-4.13,3.6-8,5.79-11.79A92.53,92.53,0,0,1,27.56,71c1.74-2.09,4.84-3.53,7.59-4.2,8.57-2.08,17-4.53,24.29-9.55,4.85-3.31,9.5-6.92,11.08-13.51,1.45-6,4.24-11.81,6.69-17.59,2.24-5.25,6.84-8.51,11.63-10.81a129.75,129.75,0,0,1,19-6.84c2.19-.66,5-1,7.06,1.38.45.53,1.66.59,2.51.58,6.27,0,12.54,0,18.79-.21,3.23-.09,6.57,0,9.62-.91,4.38-1.27,8.54-3.32,12.8-5,2.91-1.18,5.73-2.73,8.75-3.41a39,39,0,0,1,17.9.28c3.09.76,6.21,1.45,9.34,2,12,2.07,20.1,9.69,26.88,19,5.15,7.05,9.46,14.74,14.82,21.63,6.15,7.89,13,15.24,19.64,22.72a76.64,76.64,0,0,0,9.33,9.13c5.22,4.13,10.87,7.72,16.22,11.69,6.76,5,13,10.46,18.1,17.35,6.71,9.12,9.71,19.45,11.27,30.34.63,4.33.34,8.78.67,13.16.34,4.82.69,9.66,1.36,14.45,1.56,11.12,7.54,20.26,13.19,29.62,2.35,3.87,3.39,8.52,5.06,12.81,2.92,7.5,1.59,15.37,2.08,23.09A32.33,32.33,0,0,0,342,248.8c3.61,3.81,7.33,7.51,11.21,11.47-1.5.84-2.66,1.48-4,2.23-4.49-3.47-9.28-6.63-12.37-11.79-1.71-2.84-4.26-5.17-6-8-3.75-6.39-3.46-13.58-3.48-20.65a58,58,0,0,0-7.95-29.46c-.73-1.27-2.13-2.12-3.23-3.16M94.35,450.16c.8.77,1.12,1.13,1.49,1.41,5.6,4.25,11.19,8.53,16.83,12.73,3.18,2.38,6.47,4.64,9.7,6.92,7.15,5.1,14.2,10.34,21.49,15.24,2.73,1.84,6,2.89,9,4.31,5.91,2.77,11.94,5.17,18.63,4.78a60.8,60.8,0,0,0,16.64-3,72.46,72.46,0,0,0,17-8.49c3.9-2.59,7.08-6.26,10.68-9.33,5.54-4.71,11.17-9.28,16.75-14q8.15-6.79,16.25-13.66a21.84,21.84,0,0,0,2-2.21l-23.46.62c-9.28.24-18.56.51-27.84.67-10.43.2-20.88.17-31.3.53-8.08.26-16.13,1-24.19,1.45-7.3.45-14.59,1-21.88,1.24C113,449.76,104,449.91,94.35,450.16ZM18.68,277a19.42,19.42,0,0,0,.94-2.65c1-5.64,2.17-11.27,2.88-16.93s1.58-11.54,1.23-17.23c-.26-4.24,1.33-9.06-2.27-12.89-1.18,1.65-2.43,3.25-3.76,4.78C12,238.05,5.62,243.43,5,252.76c-.32,5,1.5,9.12,3.9,12.87C11.48,269.62,15.11,272.93,18.68,277Zm295.4-3.32c.09-7.72,1.32-14.3-2.56-21-4.09-7-9.71-9.94-17.23-10.28-2.49-.12-3.1,1.33-1.88,3.64,1.68,3.22,3.21,6.51,5,9.68A24.42,24.42,0,0,0,301,261c4,4.07,8.18,8,13.08,12.66Z"/><path id="Path_9" data-name="Path 9" class="cls-1" d="M345.51,392.3c-1.22.86-2.27,2.18-3.45,2.3-2.47.24-5-.34-7.51-.24-5.69.23-11.37.6-17.06,1.05A91,91,0,0,0,307,396.74c-4.49.91-8.93,2.18-13.39,3.32-6.63,1.7-13.22,3.49-19.88,5.05-.62.15-2-.91-2.26-1.68-.59-1.6-1.45-3.74-.85-5,1.91-4,3.91-8.26,6.86-11.54,3.92-4.35,8.82-7.7,15-8.62,3.94-.59,7.86-1.36,11.74-2.27,3.44-.81,6.77-2.44,10.24-2.77a14.72,14.72,0,0,1,7.95,1.65c5.47,2.92,10.68,6.35,15.87,9.76,2.18,1.43,5.21,1.81,6.27,4.72C344.77,390.13,345,390.91,345.51,392.3Zm-13-4.5c-2.62-1.91-4.4-3.54-6.47-4.64-4.64-2.5-9.28-5-14.95-2.32a41.26,41.26,0,0,1-15.66,3.9,18.51,18.51,0,0,0-7.95,2c-3.28,1.8-7.08,3.39-8.12,7.78-.19.77-1.33,1.33-2.1,2,.41.39.8,1,1,.93,17.55-4.68,35.09-9.44,54.23-9.63Z"/><path id="Path_10" data-name="Path 10" class="cls-1" d="M254.81,234.8c-3.92-.62-7.81-1.53-11.75-1.79-7.3-.47-14.72-1.6-21.79-.51-8.8,1.32-17.31,4.64-25.91,7.17-1.84.54-3.53,1.61-5.38,2-.83.2-2.66-.6-2.66-.95,0-1.84-1.68-4.34,1.28-5.34s6.18-1.79,9.28-2.7c6.16-1.8,12.28-3.72,18.47-5.4a28.31,28.31,0,0,1,7.85-1.26c7,.18,13.92.56,20.83,1.23a75.2,75.2,0,0,1,11.6,2.34,2.92,2.92,0,0,1,1.56,2.44C257.81,233.77,258,236.54,254.81,234.8Z"/><path id="Path_11" data-name="Path 11" class="cls-1" d="M82.46,278.65c-5.3-1.93-10.47-4.43-16.42-3.94-.82.08-1.79-1.65-2.69-2.55,1.27-1.14,2.56-3.32,3.78-3.25a54.1,54.1,0,0,1,24.52,7.3c7,3.92,13.92,2.65,20.79-.1,3.66-1.47,7-3.62,10.61-5.31a8,8,0,0,1,2.83-.17c0,.93.32,2,0,2.75-2.28,5-7.24,6.36-11.72,7.82-5,1.64-10.38,2.32-15.61,3.31a5.75,5.75,0,0,1-2.12-.46"/><path id="Path_12" data-name="Path 12" class="cls-1" d="M251.71,272.15c-.4,5.43-4.37,6.8-7.44,8.56-6,3.45-12.83,3.7-19.45,3.56-5.59-.11-11.17-1.52-16.74-2.52a4.33,4.33,0,0,1-3.22-5.37c.79-2.06,2.26-2.75,4.14-1.49,5.35,3.61,11.45,3.94,17.51,3.72a71.69,71.69,0,0,0,13.92-1.94c2.78-.66,5.27-2.46,7.93-3.65A22.58,22.58,0,0,1,251.71,272.15Z"/><path id="Path_13" data-name="Path 13" class="cls-1" d="M109.57,259.9a32.48,32.48,0,0,1-5.08.86c-4.58.05-9.2.14-13.76-.26a32.07,32.07,0,0,0-14.32,2.31,3.06,3.06,0,0,1-2.62-1.47c-.27-1.79-.29-3.74,2.32-4.38,8.27-2,16.57-3.52,25.12-2.16a27,27,0,0,1,5.53,1c1.24.49,2.15,1.79,3.21,2.73Z"/><path id="Path_14" data-name="Path 14" class="cls-1" d="M203.58,260.83c-.26-3.75.86-5.7,3.52-6.45,10.07-2.82,20.18-3.65,30.19.15.74.28,1.16,2.18,1.14,3.32,0,.51-1.56,1.56-2.24,1.43-6.67-1.24-13.36-1.93-20.12-1-2.93.39-5.83,1.09-8.73,1.68C206.14,260.19,205,260.52,203.58,260.83Z"/><path id="Path_15" data-name="Path 15" class="cls-1" d="M335.76,412.83A14.43,14.43,0,0,1,324.88,415c-3.94-.67-7.51.58-10.82,2.56-2.15,1.29-4.58.4-5-2-.2-1.12-.95-3-.66-3.22a22.5,22.5,0,0,1,6.42-2.88c5.52-1.2,11.17-1.82,16.68,0C333.07,409.88,334.26,411.56,335.76,412.83Z"/><path id="Path_16" data-name="Path 16" class="cls-1" d="M318.87,354.27a7,7,0,0,1-1.11-2.52c-.07-1.11.09-2.77.82-3.32,3.31-2.47,4.72-6,5.79-9.64.5-1.72.38-3.7,1.18-5.21.63-1.16,1.87-3.07,3.84-1.58,1.6,1.2,4,2,2.35,5-2,3.77-3.74,7.71-5.41,11.65C325.26,351.19,321.41,354.61,318.87,354.27Z"/></g></g></g></g></svg>