<svg id="Layer_1" data-name="Layer 1" xmlns="http://www.w3.org/2000/svg" width="364" height="542" viewBox="0 0 364 542"><defs><style>.cls-1,.cls-2{fill:none;}.cls-2{stroke:#2b458a;stroke-width:4px;}.cls-3{isolation:isolate;}.cls-4,.cls-5{fill:#182c5e;}.cls-5{stroke:#182c5e;stroke-miterlimit:10;stroke-width:2px;}</style></defs><g id="Group_27" data-name="Group 27"><g id="Rectangle_29" data-name="Rectangle 29"><rect class="cls-1" width="364" height="542"/><rect class="cls-2" x="2" y="2" width="360" height="538"/></g><g id="Tema_5" data-name="Tema 5" class="cls-3"><g class="cls-3"><path class="cls-4" d="M97.54,91.53H88.26l-4.59-4.59V98.76l5.67,5.67v8H66.49l-5.88-5.89v-8.1h5.61V91.53H58l-5.73-5.89V69.39H91.6l5.94,5.94ZM91.17,85.1V69.87H52.89V85.1h8.26V77h5.61V99H61.15v7H82.91V99H77.35V77H82.8V85.1Z"/><path class="cls-4" d="M144.79,112.43H105.86L100,106.54v-8.1h5.45V82.94L100,77.43v-8h38.28l5.84,5.94V91.47H140.8l4,3.89ZM138.42,106V90.12h-8.37V99H116.5V91h3.24v4.48h7.13V80h-7.13v4.42H116.5V77h13v8h8.31V69.87H100.62V77H106V99h-5.35v7Z"/><path class="cls-4" d="M209.81,112.43H187.18l-2.32-2.33-1.08,2.33H177l-4.1-4.11v4.11H153.54l-5.78-5.89v-8.1h5.46V83.21l-5.46-5.78v-8H166.5l5.94,6,5.19,11.23,7.83-17.22h18.36l5.94,5.83v8.1h-5.62v15.5l5.67,5.56ZM203.38,106V99h-5.56V77h5.56V69.87H185.89L176.17,91.2l-10-21.33H148.36V77h5.34V99h-5.34v7h18.36V99h-5.13V85.37L171.69,106h5.83l9.83-20.47V99h-5.24v7Z"/><path class="cls-4" d="M261.38,112.43h-22l-4.21-4.22v4.22H217.85l-5.77-5.89v-8.1h5.13l11.44-29h10.21l7.62,7.67,8.58,21.38h.54l5.78,5.94ZM255.06,106V99h-5l-11.5-29.11H229L217.58,99h-4.91v7h16.69V99h-3.89l.86-2.38h11.45l.81,2.38h-4.43v7ZM235.4,89.8h-6.75l3.41-9.61Z"/><path class="cls-4" d="M295.18,112.64c-9.5,0-14.42-7.07-16.58-10.26a7.65,7.65,0,0,1-1.29-4.26,17.41,17.41,0,0,1,.92-5.35l3.51.54-3.08-2.92,2.75-21.11c4.92.43,12.58.76,17.5.76,3,0,3.94-.65,5.07-1.73l1.57.81,5.24,5.78c-.06,6-3.19,8.31-10.32,8.31a17.93,17.93,0,0,1,2.92,2.05c5.56,4.59,8.15,8.21,8.15,13.13C311.54,106,305.06,112.64,295.18,112.64Zm-2.32-30.72a15,15,0,0,0-5.78,1.13L288,77a46,46,0,0,0,7.56.81c7.56,0,8.64-3,9.4-8.37l-.81-.38c-1,.92-2,1.51-5.3,1.51-3.56,0-10.74-.27-17-.65l-2.64,20.2,6.48,1.84c1.19-2.49,2.7-3.35,5.4-3.35,3.29,0,4.91,1.46,4.91,5.34,0,4.32-2.16,6.16-5.51,6.16-2.75,0-4.64-1.13-4.64-3.51a6.43,6.43,0,0,1,.32-2.11l-7.56-1a13.62,13.62,0,0,0-.81,4.7c0,5.29,5.62,8.58,12.8,8.58,9,0,15.5-4.59,15.5-13.07C306.09,85.43,299.07,81.92,292.86,81.92Zm-.38,17.28a4.45,4.45,0,0,0,2.86-3.89,4.52,4.52,0,0,0-1.72-.38A2,2,0,0,0,291.73,97,3.69,3.69,0,0,0,292.48,99.2Z"/></g></g></g><g id="Layer_2" data-name="Layer 2"><g id="Background_Threshold_1_Image" data-name="Background Threshold 1 Image"><path class="cls-5" d="M266.72,271.67c-4.18-2.23-6.36-12-9.06-10.27A148.43,148.43,0,0,1,227,266.77c-28.27.63-56.48,0-84.44-4.62-26.09-3.33-24.68-1.82-11.9-24.93,9.26-14.58,27.06-17.92,42.82-19.68,5.78-1.35,12-.89,17.89-.29,8.26-.27-2.5,11.28-3.24,16.07-.26,0-.59.05-.94.1a30.35,30.35,0,0,0-4.88,2.42c-6.56,4.55-3.67,9.92,4.22,8.72,7,.36,15.26-4.52,21.06-4.23,2.22-2.71,7.77-.27,7.13-6.81a1.79,1.79,0,0,0-2.19-1.48,1.43,1.43,0,0,1-.87.32.3.3,0,0,1-.3-.3,2.06,2.06,0,0,1,.18-.87,8.09,8.09,0,0,1,.51-1l.1-.17a2.63,2.63,0,0,1,.34-.91,1.88,1.88,0,0,1,.18-.24c.76-2.84,1.24-6.42,3.92-5.13,6.7,2.31,12.93,5.45,17.47,11,7.56,3.25,15.77,18.4,18.11,20.09.68.9,1.59,2.14.33,1.86,1,1.54,1.28,4.61,3.18,4.95.43-1.07,1.6.3.73-1.62-.88-2.46-2.68-4.78-3.72-6.87-2-6-7.34-8.9-10.93-14.08-3.87-4.32-8.77-7.23-12.71-11.39-3.41-3.36-13.83-4.19-13-7.55,5.59-16.73,13.94-34.37,20.69-51.48,2.21-5,3.8-10.18,5.44-15.19,2-1.92-.1-3.74-1.55-5.07-1.46-1.64-4.22-.85-6-2.2-2.35-.79-5.71-4-8-2.4-3.62,8.78-6.8,18.73-12.41,26.14-1.16,10.91-9.49,23.93-13.61,35.36-5.35,13.3-3.81,10.78-17.55,9.86-18,1.35-39.23,3.29-51.43,18.2a79.3,79.3,0,0,0-12.32,25.17c-8-.9-6.38,2.83-8.67,9.1-.34,2.14-1.86,4.59-1.4,6.67,2.86,1,5.47,3.78,8.64,2.74,1,2.13.76,2.62.4,2.84a4.43,4.43,0,0,1,.33.88,91.08,91.08,0,0,1,2.14,11.83c.81,6.37,1.09,12.78,1.63,19.17s1.8,12.65,1.55,19a5.61,5.61,0,0,1-.14,1.1,141.14,141.14,0,0,1,1.09,15.3l.21.28a5.17,5.17,0,0,1,.62,3.63c.55.91,0,1.24-.32,1.92.07.43.14.86.2,1.29.19,1.29.33,2.58.47,3.87a3,3,0,0,0,.47.35,1.63,1.63,0,0,0-.43.05l.09.93c.41.3.32.88.15,1.56.08.8.16,1.61.25,2.41,0,.31.07.63.1.94.44-.26.25,0,0,.44.15,1.38.27,2.76.35,4.14l.17.19c.51.5-.56,1.49.34,1.75-1,11.42,3.64,23.28,4,35,.28,2.72.2,5.47.89,7.82a.21.21,0,0,1-.21,0c0,.24.07.49.11.74a55.07,55.07,0,0,1,.44,7.38c0,.19,0,.37,0,.55.45,1.7,1,3.38,1.32,5.11a31.1,31.1,0,0,1,.66,9.37,5.4,5.4,0,0,1-.2,1.45,3.09,3.09,0,0,1-.27,1.55c-.15,2.94,4.17,5.16,6.46,6.61,13.52,7.46,29.56,7.19,44.61,8.2,17.72,2.06,35.78.61,52.51-5.69,6.05-1.81,5.48-6,5.93-11.21,2.46-15.15,1.95-30.58,3.3-45.67,1-18.51,6.94-46.59,5-59.08.59-4.34.3-10.08,1.11-14.56a10.44,10.44,0,0,1,0-1.48c.12-1.75.43-3.52.71-5.26a20.92,20.92,0,0,1,1.79-6.2c.74-9.46,2.85-18.85,2.72-28.34,2.21-1.48,1.73,0,3.28.13C262.07,273.37,267.31,274.41,266.72,271.67Zm-85.56-29.81c-.87-1.79.47-4.39,2.26-5.38h0a1.89,1.89,0,0,1,.64-.68.32.32,0,0,1,.27-.13c3.19-1,2.63,0,1,3.35C184.52,240.63,183.12,244.3,181.16,241.86Zm32-8.86c1,2.38-1.47,4.19-3.44,4.37C210.57,235.33,210.51,233.16,213.14,233Zm1.34-12.53c-.57-.37-1.69.15-1.31-1.26C214.67,218.66,215.32,218.75,214.48,220.47Zm14-40.41,1.32-.38C229.24,180.45,229.14,181.06,228.5,180.06Zm1-34.62c3.35.69,6.11,4.46,9.42,4.23C245.83,153.11,229.29,149.58,229.5,145.44Zm-2.62,1.37c1-1.89.47-.54,1.51.15,2.48,3.64,6.82,5.28,11,6,5,4.68-15.82,7.5-19.18,10C222.13,157.3,225.47,152.54,226.88,146.81Zm-15.6,37.29c2.13-4.12,3.18-8.63,5-12.86,6.33-1.31,13.33-4.56,20.1-6.19-1.32,4.2-2.82,9.12-5.34,12.58-7.23,1.78-12.73,5.26-19.26,7.1C211.38,184.86,211.07,184.53,211.28,184.1Zm.6,1.65c-.08.57-1,.56-1.57,1C210.73,185.72,210.76,185.28,211.88,185.75Zm-8.09,15.95c1-3.89,3.38-5,6.8-6.31,1.19-1.25,4-.55,3.62-1.45,20.34-9.61,7.18,3.93,4.14,15.23-.22,2-1.57.47-2.82.37-4.24,1.67-8.63,2.78-12.92,4.22C192.34,219.67,202.65,207.44,203.79,201.7Zm-4.65,24c4.77-2.3,10.22-4.8,14.06-2.12-2.27,4.67-2.51,9.14-5.37,13.5-3.8,2.84-11.07,3.81-16.18,5-6.54,1.74-7.11.66-3.4-4.77.73-.18,1.11-1,1.5-1.89a11.17,11.17,0,0,1,.5-2.61.8.8,0,0,1,.18-.57c.15-.44.32-.87.49-1.32a5.81,5.81,0,0,1,1.9-2.75,4.91,4.91,0,0,1,2.45-1A15.93,15.93,0,0,1,199.14,225.65Zm58,50.34c-7.64,4.69-7.64-5.41-8.35-10.84C256.35,261.27,253.39,271.84,257.13,276Zm-16.92-8.53c.61.77.37,12.52,4.51,10.73a30.74,30.74,0,0,1-2.84-10.2c-1-2.69,3.35-1.58,4.9-2.32,1.45,3.52,1.41,8.38,3.08,12.17-4.08,1.39-8.37,1.65-12.62,2.15-1.84-3.68-1.36-9.28-3.4-12.09C235.71,267.59,238.85,266,240.21,267.46Zm-6.56,5.12c.5,4.41,3.83,8.8-2.77,8.68A1.37,1.37,0,0,1,229.4,280c-.77-3.92-.72-7.89-1.67-11.8C233.35,268.21,232.92,266.12,233.65,272.58ZM228,281.63c-10.18,3-6.69-6.47-7.5-13C230.35,266,225.75,275.42,228,281.63ZM218,268.58c2.71,2.43-.54,10,1.89,13.67-4.66.95-4.88-1.56-5-5.64C215.68,273.36,212.84,267,218,268.58Zm-11.49.75c1.24,3.68-1.49,11.56,2.65,13h0c.6-5.63-4.8-16,4.18-13.88-.47,11.23,3.94,15.86-10.26,14.58-2.94-3.4-1.55-9.53-2.11-13.86C200,267.5,208,268,206.55,269.33Zm-6,13.6c-8.21,1.81-4.22-9.66-5.65-14.67C203.24,266.29,197.75,277.67,200.54,282.93Zm-19.95-14.64c16.43-1.08,12,.23,13.54,14.46-9.17,2.18-5.83-7.11-6.41-13.05-2.36-4-1.83,10.53-1.28,12.56C177.48,283.56,180.66,274.13,180.59,268.29Zm-8.25-.78c9.5-1.95,5.54,7.23,6.63,14C168.45,283.45,173.44,274,172.34,267.51Zm-6.11-1c9.32-.88,2.05,8.06,4.59,14.75h0c-6.51.69-7.2-2-6.77-7.75C164.87,271,162.22,264.89,166.23,266.47Zm-7.89-.88c1.24.48,4.42-.37,4.58,1.14a53,53,0,0,0,.15,13.79h0c-4.7-.09-5.92-.22-5.67-5.11C157.83,272.65,155.36,266.73,158.34,265.59Zm-2.14,14.24-7.87-.76a72.38,72.38,0,0,0-.08-14.49C160.41,263.48,153.53,272.17,156.2,279.83Zm-17.06-16.67c12.24-1.77,5.46,8.94,8.68,15.89C133.29,279.12,141,274.2,139.14,263.16Zm-8.21,1.94c.43,0,1.22-2.07.95-2.08-1.08-.21-.76-1,.14-.93,3.36.61,6.84-.06,5.57,4.37-.53,3.61.72,8.44-.86,11.47-2-.43-4-.54-6-1.08C131.23,273.24,131.68,268.65,130.93,265.1Zm-6.31-4.55c9.26-.42,3.3,6.62,5.75,5.82a25.31,25.31,0,0,0-.9,10.34c-3.3-.52-6.82.21-5.06-4.15C124,268.48,124.59,264.55,124.62,260.55ZM114.68,275c-6.35-1.06-2-7.95-.69-12.23C114.93,266.69,114.61,271,114.68,275Zm1.75-3.65c-.3-3,.14-6.17-.83-9.11-.47-.36-1.28.76-1.47-.53,1.78.1.83-1,.6-2.26,2.7,1.05,5.29.21,8,.75a10.87,10.87,0,0,0,0,7.13c-1,2,.35,4.82-.23,7.27C122,276.75,114.64,275.27,116.43,271.35Zm9.8,85.76c0-.43-.53-1.28-.09-1.46C126.23,356.17,127.1,357,126.23,357.11Zm114.35,89.24c-.22-.29,1.28-1.74,1.54-1.36C241.86,445.72,241.19,446,240.58,446.35Zm15.8-167c-.07,1.43-2.52,24.33-4.32,39.2-1.41,6.95-.82,14.33-1.5,21.23a44.54,44.54,0,0,1,.12,4.62c0,.69-.07,1.38-.13,2.07.2.2.06.52-.09.81s-.05.36-.07.54a.56.56,0,0,0,.15,0c.05,1.82-.21,2.11-.43,1.74L250,350c-.06.33-.14.65-.23,1a24,24,0,0,1-.33,7.26c-.38,2-1,4-1.37,6.06s-.78,4.34-1.14,6.52c-1.78,24.06-2.76,48.25-5,72.2-6.69,15.71-103.17,13.68-106.23-4.62l.35-.1c-.38-3-.33-6.11-.46-9.14-.06-1.55-.14-3.09-.13-4.64-.18-.41-.35-.83-.51-1.28a19.4,19.4,0,0,1-.91-5.91,24.06,24.06,0,0,1,.19-3.6c-.12-.83-.22-1.65-.28-2.44-.8-12.4-2.79-25.17-3.84-34.34-.37-8.94-2.42-18.42-2.89-27.41-.45-3.8-.89-7.61-1-11.43-.49-3.74-1.1-10.34-1.22-13.84a12.28,12.28,0,0,1-.39-3.41,5.6,5.6,0,0,1,.55-2.24q-.66-6-1.4-11.94c-.44-3.64-.89-7.26-1.1-10.91a9.06,9.06,0,0,0-.32-1.09c-.77-5.74-1.35-11.43-2.06-17.15,1.62-1.44,4.68.35,6.77.44,13.5,2.29,27.1,3.18,41,4.68a332.69,332.69,0,0,0,68.26-.13c1.05,1.25,1.76,1.16,2.35-.35.05-1.86,13.13-1.79,17.54-4.29.24,2.25.67,1.21.93-.47C258.81,277.81,257.51,281.25,256.38,279.37Zm3.56-4.43c-2.65,1.47-2.94-4.39-3.79-6.06-.89-3.3-2.79-5.88,2.08-5.71C260.79,266.78,261.61,271.51,259.94,274.94Zm2.4-2.05v-3.41C264,271.15,265.44,272.14,262.34,272.89Z"/><path class="cls-5" d="M233.13,297.35c-1.39-.41,2.33-1.17,1.2,1.1,1.07,1.61-.53,4.38-1.49,5.9-.18,4-1.14,10.8-1.15,16,1.34,19.39,0,38.78-1.87,58.09-1,10.14,1,22.25-1.91,31.45-1.76-20,1.71-42,2.7-62.61C231.38,330.72,228.26,313.22,233.13,297.35Z"/><path class="cls-5" d="M158.92,434.09c-.59-1.42-6.1-.23-6.23-3.17,3.51-2.18,12.09,4.7,17.7,4.08,13.68,1.71,27.6-.59,40.82-3.09C208.4,438.42,166.91,438.29,158.92,434.09Z"/></g></g></svg>