<svg id="Layer_1" data-name="Layer 1" xmlns="http://www.w3.org/2000/svg" width="364" height="542" viewBox="0 0 364 542"><defs><style>.cls-1,.cls-2,.cls-3{fill:none;}.cls-2{stroke:#2b458a;stroke-width:4px;}.cls-3{stroke:#182c5e;stroke-miterlimit:10;stroke-width:3px;}.cls-4{isolation:isolate;}.cls-5{fill:#182c5e;}</style></defs><g id="Group_24" data-name="Group 24"><g id="Rectangle_30" data-name="Rectangle 30"><rect class="cls-1" width="364" height="542"/><rect class="cls-2" x="2" y="2" width="360" height="538"/></g><g id="Group_21" data-name="Group 21"><path id="Path_20" data-name="Path 20" class="cls-3" d="M147.52,425.93v25.79a4.8,4.8,0,0,1-4.79,4.79H129.31a4.79,4.79,0,0,1-4.79-4.79V395.65a15.41,15.41,0,0,1,12.08,15.07V411A15.07,15.07,0,0,0,147.52,425.93Z"/><path id="Path_21" data-name="Path 21" class="cls-3" d="M234,395.25v56.47a4.8,4.8,0,0,1-4.79,4.79H215.74a4.81,4.81,0,0,1-4.79-4.79V425.67a15,15,0,0,0,10.53-14.61v-.33A15.45,15.45,0,0,1,234,395.25Z"/><path id="Path_22" data-name="Path 22" class="cls-3" d="M295.08,336.88c0,7.92-5.93,15.76-15.69,15.63h-.23A15.44,15.44,0,0,0,266,375.93a15.45,15.45,0,0,1,2.32,8c0,10.92-12.32,19.85-23.45,13.21a15.31,15.31,0,0,0-7.88-2.21,15.78,15.78,0,0,0-3,.29,15.45,15.45,0,0,0-12.47,15.48v.33a15.44,15.44,0,0,1-28.92,7.5,15.44,15.44,0,0,0-27,.07,14.93,14.93,0,0,1-13.33,8,15.63,15.63,0,0,1-4.71-.71,15.07,15.07,0,0,1-10.92-15v-.23a15.41,15.41,0,0,0-12.08-15.07,15.19,15.19,0,0,0-11.34,1.86,15.36,15.36,0,0,1-8,2.32c-10.93,0-19.86-12.32-13.22-23.45A15.42,15.42,0,0,0,78.38,353H78c-15.81,0-21.42-21.14-7.49-28.92a15.44,15.44,0,0,0-.07-27,14.91,14.91,0,0,1-8-13.33c0-7.93,5.93-15.77,15.69-15.63h.23A15.44,15.44,0,0,0,91.6,244.73a15.34,15.34,0,0,1-2.32-8c0-9.4,9.11-17.32,18.74-15.13,1.21,2.59,4.37,4.68,8.89,4.68h.23c5.61-.08,9.66,3.31,9.66,7a5.65,5.65,0,0,1-1.35,3.58,5.29,5.29,0,0,0-.89,5.82,54.13,54.13,0,0,0-9.33,10.82c-7.94,12-10.21,24.44-5.08,27.84,4.39,2.91,12.78-1.76,20.09-10.68,4.53,30.25,25.13,53.09,49.85,53.09,25.33,0,46.33-24,50.15-55.36,7.68,10.37,17.11,16.1,21.86,12.95,5.13-3.4,2.86-15.87-5.08-27.84-4.12-6.22-9-11.08-13.38-13.84a6.06,6.06,0,0,0-1.38-3.07c-3.81-4.68.76-10.64,8.1-10.64h.15c4.72,0,8-2.16,9.16-4.86a14.68,14.68,0,0,1,2.73-.26c10.93,0,19.86,12.32,13.22,23.45a15.25,15.25,0,0,0-2.21,7.89,15.47,15.47,0,0,0,15.48,15.47h.63c15.8,0,21.41,21.14,7.48,28.92a15.45,15.45,0,0,0,.07,27A15,15,0,0,1,295.08,336.88Z"/><path id="Path_23" data-name="Path 23" class="cls-3" d="M130.24,270.66c-7.31,8.92-15.7,13.59-20.09,10.68-5.13-3.4-2.86-15.87,5.08-27.84a54.13,54.13,0,0,1,9.33-10.82A8.73,8.73,0,0,0,130,247,85.06,85.06,0,0,0,130.24,270.66Z"/><path id="Path_24" data-name="Path 24" class="cls-3" d="M252.1,281.34c-4.75,3.15-14.18-2.58-21.86-12.95a85.39,85.39,0,0,0-.28-22.64c2.24-1.31,3.72-3.33,3.72-5.52a3.64,3.64,0,0,0,0-.57c4.42,2.76,9.26,7.62,13.38,13.84C255,265.47,257.23,277.94,252.1,281.34Z"/><path id="Path_25" data-name="Path 25" class="cls-3" d="M252.1,281.34c-4.75,3.15-14.18-2.58-21.86-12.95a85.39,85.39,0,0,0-.28-22.64c2.24-1.31,3.72-3.33,3.72-5.52a3.64,3.64,0,0,0,0-.57c4.42,2.76,9.26,7.62,13.38,13.84C255,265.47,257.23,277.94,252.1,281.34Z"/><path id="Path_26" data-name="Path 26" class="cls-3" d="M130.24,270.66c-7.31,8.92-15.7,13.59-20.09,10.68-5.13-3.4-2.86-15.87,5.08-27.84a54.13,54.13,0,0,1,9.33-10.82A8.73,8.73,0,0,0,130,247,85.06,85.06,0,0,0,130.24,270.66Z"/><path id="Path_27" data-name="Path 27" class="cls-3" d="M230.86,258.11a86.08,86.08,0,0,1-.62,10.28c-3.82,31.37-24.82,55.36-50.15,55.36-24.72,0-45.32-22.84-49.85-53.09A85.06,85.06,0,0,1,130,247a11.63,11.63,0,0,0,3.51.53,12,12,0,0,0,4.93-1.05,11.79,11.79,0,0,1,3.13-.89c5.57-.81,11.24,2.3,11.24,6.87v.11c-.09,4.43,4.71,7.12,9.57,7.12a10.07,10.07,0,0,0,8.2-3.64c3.6-4.82,12.95-4.84,16.57,0,4.78,6.32,17.75,3.77,17.75-3.42v-.15c-.1-4.16,4.5-7.17,9.51-7.17a12.18,12.18,0,0,1,4.83,1,10.59,10.59,0,0,0,1.46.53,11.75,11.75,0,0,0,9.22-1A85.35,85.35,0,0,1,230.86,258.11Z"/><path id="Path_28" data-name="Path 28" class="cls-3" d="M250.15,218.84a5.58,5.58,0,0,1-.48,2.25c-1.17,2.7-4.44,4.9-9.16,4.86h-.15c-7.34,0-11.91,6-8.1,10.64a6.06,6.06,0,0,1,1.38,3.07,3.64,3.64,0,0,1,0,.57c0,2.19-1.48,4.21-3.72,5.52a11.75,11.75,0,0,1-9.22,1,10.59,10.59,0,0,1-1.46-.53,12.18,12.18,0,0,0-4.83-1c-5,0-9.61,3-9.51,7.17v.15c0,7.19-13,9.74-17.75,3.42-3.62-4.8-13-4.78-16.57,0a10.07,10.07,0,0,1-8.2,3.64c-4.86,0-9.66-2.69-9.57-7.12v-.11c0-4.57-5.67-7.68-11.24-6.87a11.79,11.79,0,0,0-3.13.89,12,12,0,0,1-4.93,1.05A11.63,11.63,0,0,1,130,247a8.73,8.73,0,0,1-5.48-4.29,5.29,5.29,0,0,1,.89-5.82,5.65,5.65,0,0,0,1.35-3.58c0-3.71-4-7.1-9.66-7h-.23c-4.52,0-7.68-2.09-8.89-4.68-1.38-3-.23-6.56,4.33-8.45,3.24-1.34,4.86-3.73,4.86-6.12s-1.64-4.81-4.9-6.14-4.9-3.72-4.9-6c0-3.6,3.64-7.17,9.63-7.11h.13c7.36,0,11.94-6,8.13-10.64a5.73,5.73,0,0,1-1.42-3.64c0-5,7.57-9,14.4-6a11.81,11.81,0,0,0,4.83,1c5,0,9.61-3,9.5-7.16v-.15c0-7.19,13-9.75,17.75-3.42,1.81,2.39,5,3.59,8.27,3.59s6.5-1.21,8.31-3.63a10.1,10.1,0,0,1,8.2-3.65c4.85,0,9.65,2.69,9.57,7.12v.11c0,5.44,8,8.81,14.36,6a12.35,12.35,0,0,1,4.94-1.06c6.7,0,12.17,5.59,8.09,10.64a5.69,5.69,0,0,0-1.35,3.58c0,3.71,4.05,7.1,9.67,7h.23c9.68,0,13.1,9.59,4.56,13.13-3.24,1.34-4.86,3.74-4.86,6.13s1.63,4.8,4.89,6.13S250.15,216.51,250.15,218.84Z"/><g id="Group_19" data-name="Group 19"><path id="Path_29" data-name="Path 29" class="cls-3" d="M211.73,270.44a15.53,15.53,0,0,1-21.07,6.19,15.82,15.82,0,0,1-2.1-1.38"/><line id="Line_3" data-name="Line 3" class="cls-3" x1="201.26" y1="278.21" x2="203.1" y2="287.1"/><line id="Line_4" data-name="Line 4" class="cls-3" x1="190.31" y1="276.41" x2="185.98" y2="283.86"/><line id="Line_5" data-name="Line 5" class="cls-3" x1="210.65" y1="272.18" x2="217.59" y2="277.3"/><line id="Line_6" data-name="Line 6" class="cls-3" x1="195.75" y1="278.3" x2="194.02" y2="287.04"/><line id="Line_7" data-name="Line 7" class="cls-3" x1="206.51" y1="276.07" x2="211.59" y2="283.4"/></g><g id="Group_20" data-name="Group 20"><path id="Path_30" data-name="Path 30" class="cls-3" d="M148.33,270.44a15.51,15.51,0,0,0,21.06,6.19,14.62,14.62,0,0,0,2.1-1.38"/><line id="Line_8" data-name="Line 8" class="cls-3" x1="158.8" y1="278.21" x2="156.95" y2="287.1"/><line id="Line_9" data-name="Line 9" class="cls-3" x1="169.74" y1="276.41" x2="174.07" y2="283.86"/><line id="Line_10" data-name="Line 10" class="cls-3" x1="149.4" y1="272.18" x2="142.46" y2="277.3"/><line id="Line_11" data-name="Line 11" class="cls-3" x1="164.3" y1="278.3" x2="166.04" y2="287.04"/><line id="Line_12" data-name="Line 12" class="cls-3" x1="153.54" y1="276.07" x2="148.47" y2="283.4"/></g></g><g id="Tema_2" data-name="Tema 2" class="cls-4"><g class="cls-4"><path class="cls-5" d="M97,91.53H87.69L83.1,86.94V98.76l5.67,5.67v8H65.93L60,106.54v-8.1h5.62V91.53H57.45l-5.72-5.89V69.39H91L97,75.33ZM90.61,85.1V69.87H52.32V85.1h8.26V77H66.2V99H60.58v7H82.34V99H76.78V77h5.46V85.1Z"/><path class="cls-5" d="M144.23,112.43H105.29l-5.83-5.89v-8.1h5.46V82.94l-5.46-5.51v-8h38.29l5.83,5.94V91.47h-3.35l4,3.89ZM137.86,106V90.12h-8.37V99H115.93V91h3.24v4.48h7.13V80h-7.13v4.42h-3.24V77h13v8h8.32V69.87H100.05V77h5.35V99h-5.35v7Z"/><path class="cls-5" d="M209.24,112.43H186.62l-2.33-2.33-1.08,2.33h-6.75l-4.1-4.11v4.11H153l-5.77-5.89v-8.1h5.45V83.21l-5.45-5.78v-8h18.73l5.94,6,5.19,11.23,7.83-17.22h18.36l5.94,5.83v8.1h-5.62v15.5l5.67,5.56ZM202.82,106V99h-5.57V77h5.57V69.87h-17.5L175.6,91.2l-10-21.33H147.79V77h5.35V99h-5.35v7h18.36V99H161V85.37L171.12,106H177l9.83-20.47V99h-5.24v7Z"/><path class="cls-5" d="M260.81,112.43h-22l-4.21-4.22v4.22H217.29l-5.78-5.89v-8.1h5.13l11.45-29h10.2l7.62,7.67,8.58,21.38H255l5.78,5.94ZM254.49,106V99h-5L238,69.87h-9.5L217,99H212.1v7h16.69V99H224.9l.87-2.38h11.44L238,99H233.6v7ZM234.84,89.8h-6.75l3.4-9.61Z"/><path class="cls-5" d="M312.17,112.37H282.84L277,106.54V99l6.1-5.23-3.94-4.22a15.15,15.15,0,0,1-2.43-8.53c0-8.21,7.5-12,14.68-12a16.37,16.37,0,0,1,10.91,3.68c5.08,4.32,8.59,7.45,8.59,12.36a10.9,10.9,0,0,1-3.67,7.51l5,5ZM305.9,106V92.18H298V99h-10.8l7.51-5.29c4.53-3.19,10.26-7,10.26-13.29,0-7.18-6.54-10.8-13.56-10.8s-14.14,3.68-14.14,11.45a15.21,15.21,0,0,0,2.16,8l7.88-2.16a11.1,11.1,0,0,1-1.84-6.27c0-3.29,2.49-4.32,5.08-4.32,2.21,0,4.37,1.08,4.37,4.49,0,2.64-1,4.1-3.07,6-4.49,4-14.26,12.42-14.26,12.42V106ZM292.29,85.59a6.72,6.72,0,0,0,1.84-2.92,2.45,2.45,0,0,0-1-.16,1.6,1.6,0,0,0-1.52,1.57A2.07,2.07,0,0,0,292.29,85.59Z"/></g></g></g></svg>