<svg id="Layer_1" data-name="Layer 1" xmlns="http://www.w3.org/2000/svg" width="364" height="542" viewBox="0 0 364 542"><defs><style>.cls-1,.cls-2{fill:none;}.cls-2{stroke:#2b458a;stroke-width:4px;}.cls-3{fill:#182c5e;}.cls-4{isolation:isolate;}</style></defs><g id="Group_26" data-name="Group 26"><g id="Rectangle_28" data-name="Rectangle 28"><rect class="cls-1" width="364" height="542"/><rect class="cls-2" x="2" y="2" width="360" height="538"/></g><g id="Group_23" data-name="Group 23"><g id="Group_22" data-name="Group 22"><path id="Path_31" data-name="Path 31" class="cls-3" d="M231.24,382.78a84.91,84.91,0,0,1-10,13.12c-1.85.52-4-1.76-2.29-3.56,12.11-13.9,21.63-31.46,25-49.36-8.84-5.82-20.07-6.84-30.1-10.13-9.69-1.06-20.52-3.85-26.26-12.75-6-7.9-4.86-21.58,1-29.73,13.32-17,48.38-4.38,61.43,8.43-.29-18.7,7.55-2.43,14.66.66a49.66,49.66,0,0,1,9,3.27c6.2,0,14.7,2.75,19.73-1.45a17.3,17.3,0,0,0-2-17.63c-7.27-8.67-17.15-15.06-23.45-24.67a59.73,59.73,0,0,1-13.36-26.9c-3.84-6.75-3.36-14.27-13.68-12.76-18.25,1.19-36.54,1.29-54.74,3,2.69,3.46,3,7.34,1.95,11.55-.18,3.1-5.94,3.68-7.84,1.62-2.21-1.47-2.39-4-4-5.87-1.44-1-1.07-2.73-.61-4.27-.51-1,0-1.92.22-3-13.67.05-27.65.09-41.26.52-4.18,3-4.26,9.13-6.48,13.53a58,58,0,0,0-2.9,18.49c-1.87,39.57-3.78,81.5,15.58,117.4,3,6.33,8.07,11.29,11,17.63,2.16,1.66,6.17,6.6,1.17,6.64-15.16-15.46-4.45-19.43-33-4.37C100.54,403.26,84,418.43,68.16,434c-4.26,5-9.07,9.73-12.32,15.49a2.39,2.39,0,0,1-2.62,1.27c-.81-.74-2.93-2.06-1.55-3.18,7.24-9,14.59-18.07,23.53-25.61,19.09-17.78,39.45-34.44,64.5-43.06-15.27-25.67-19.88-54.1-19.5-84,.57-24.2-2.73-51.08,9.7-72.74-17-3.78-34.78-4.4-49.87-13.53-8.34-6.94-19.15-21.44-4.66-28.08,4.51-1.44,10.43-.7,15.33-.43,9.35.17,14.58,9,22.73,12,13.95,5.75,16.92,0,24.24-10.76,6.18-5.7,11.4-14.21,19.91-16.33,4.77-3.08,10.22-7.13,16.09-7.8,1-.16,1.73-1.17,2.83-1,1.7,0,3-1.57,4.68-1,8.56-1.06,17.91-2.33,26.29.08,13,3,20.4,14.76,29.89,23,6.69,7.05,15.63,14.94,25.89,9.72,9.93-6.77,24.62-9.44,36.16-5,7.14,6.12,9.8,15.63,2.9,23.06-13.82,10.51-33.37,8-49.41,12.75,5.92,8.3,6.62,18.89,11.74,27.61,7.76,14.75,21.95,23.94,32,36.75,4.79,7.58,3.77,24.39-8.08,23.41-11.46,1.31-26.07-1-34.09-10-.89,18.83-2.58,37.55-8.48,55.49a93.84,93.84,0,0,1-10.75,24.43c-3,3.81,4.92,5.72,6.72,8.92,15.83,13.78,29.08,29.92,41.76,46.54,1.79,4.44,17.19,17.48,12,20.35-3.51,1.19-4.59-4.85-6.72-6.77-6.48-8.07-12.54-16.44-18.83-24.7C258.09,407.59,246.38,392.54,231.24,382.78ZM151.11,219.07c16.37-1.87,34.09.17,50.52-2,26.13-.4,51.22-2,77-6.74,11.26-1.4,33.82-9.17,19.57-22.77-8.32-4.65-21.4-2-29.6,2.06-8,7-21.89,5.45-27.94-2.74-5.34-5.85-12.23-10.48-16.49-17.17-3.54-1.07-6.54-5-9.66-7.22a43.37,43.37,0,0,0-10.81-3.88c-25-2.8-50,7.52-64.76,28.1-5.18,12.23-17.42,14.9-28.37,8.23-6.94-4.17-12.61-11.16-21.45-11.29-28.3-2.61-16.29,20,.91,26.63,13.7,3.12,27.32,6.16,41.2,8.05,6.41,1.67,13.45-.79,19.9.71ZM248.56,304c-9.3-13.42-41.52-25.16-54.93-13.54-8.85,9.39-7.2,27.17,4.34,33.57,5.2,3.66,11.54,4.07,17.58,5.19,10.34,2.39,20.43,5.58,30.46,8.9.45-11.17,5.4-23.66,2.55-34.12Zm-66-71.76c3.13.44,3.72-3.63,1.77-5.18-1.82-.85-3-6.4-5.19-4.16,2,2.8.37,7.19,3.42,9.34Z"/><path id="Path_32" data-name="Path 32" class="cls-3" d="M243.45,249.58c3.16,2.72.15,8.82-1.84,11.8-3.77,8.09-13.67,8.89-21.5,7.46C210.17,266,181,256.47,186.7,242.75c1.55-4.92,6-7.74,9.43-11,2.87-2.81,6-5.8,10.24-6,7.21.64,16.25,1,20.92,7.09C233.67,233.63,240.65,244,243.45,249.58Zm-15.22-12.09c-15.26-11.89-30.7-8.92-38.49,9,3.39,9.66,18.2,12.54,26.84,17a56,56,0,0,1,.61-9.14c-.46-.51-.09-.86.15-1.1,1.26-2.43,1-5.25,2.92-7.35C221.26,242.15,226.6,241.07,228.23,237.49Zm6.23,7.44c-3.78-6.13-6.2-1-10,1.69-4.1,4.2-4.28,11.64-3.5,17.05,2,3.1,7.39,1,10.64.77,2.89-.11,4.68-2.45,6.44-4.3,4.94-6.17,1.73-10.36-2.49-15.83Z"/><path id="Path_33" data-name="Path 33" class="cls-3" d="M169.34,236.57c3.71-.33,7.71.19,9.44,4,.64,1.19,2.17,2.71.81,4.05-1.1,1.15-.46,3.91-2.68,4-1.11.76-2,1.85-3.48,2-10.34,2.91-16.82-13.75-4.11-14.32Zm-3.52,7.19c3.22,4.08,7.52,3.28,10.86.08-1.08-3.93-11-5-10.86-.09Z"/><path id="Path_34" data-name="Path 34" class="cls-3" d="M151.11,219.07c-6.45-1.5-13.49,1-19.9-.72-13.88-1.89-27.5-4.92-41.2-8-17.1-6.6-29.31-29.22-.91-26.63,8.85.14,14.5,7.12,21.45,11.3,11,6.67,23.18,4,28.37-8.23,14.72-20.57,39.78-30.89,64.76-28.09a43.34,43.34,0,0,1,10.81,3.87c3.13,2.23,6.13,6.15,9.66,7.22,4.26,6.69,11.15,11.33,16.49,17.17,6.05,8.19,19.93,9.78,27.94,2.75,8.25-4.06,21.23-6.71,29.6-2.06,14.23,13.61-8.28,21.36-19.57,22.77-25.76,4.73-50.85,6.33-77,6.73C185.21,219.24,167.47,217.2,151.11,219.07Z"/><path id="Path_35" data-name="Path 35" class="cls-3" d="M248.56,304c2.85,10.47-2.1,22.95-2.55,34.12-10-3.33-20.12-6.51-30.46-8.9-6-1.12-12.38-1.53-17.58-5.19-11.54-6.4-13.19-24.18-4.34-33.57C207.05,278.85,239.23,290.57,248.56,304Z"/><path id="Path_36" data-name="Path 36" class="cls-3" d="M234.46,244.93l1.13-.62c4.23,5.48,7.44,9.66,2.5,15.83-1.77,1.85-3.55,4.19-6.44,4.3-3.26.21-8.64,2.33-10.64-.77-.79-5.41-.6-12.85,3.5-17.05C228.27,244,230.68,238.78,234.46,244.93Z"/></g></g><g id="Tema_4" data-name="Tema 4" class="cls-4"><g class="cls-4"><path class="cls-3" d="M95.44,91.53H86.15l-4.59-4.59V98.76l5.67,5.67v8H64.39l-5.89-5.89v-8.1h5.62V91.53H55.91l-5.72-5.89V69.39H89.5l5.94,5.94ZM89.07,85.1V69.87H50.78V85.1H59V77h5.62V99H59v7H80.8V99H75.24V77H80.7V85.1Z"/><path class="cls-3" d="M142.69,112.43H103.75l-5.83-5.89v-8.1h5.46V82.94l-5.46-5.51v-8h38.29L142,75.33V91.47h-3.35l4,3.89ZM136.32,106V90.12H128V99H114.39V91h3.24v4.48h7.13V80h-7.13v4.42h-3.24V77h13v8h8.32V69.87H98.52V77h5.34V99H98.52v7Z"/><path class="cls-3" d="M207.7,112.43H185.08l-2.32-2.33-1.08,2.33h-6.75l-4.11-4.11v4.11H151.44l-5.78-5.89v-8.1h5.45V83.21l-5.45-5.78v-8H164.4l5.94,6,5.18,11.23,7.83-17.22h18.36l5.94,5.83v8.1H202v15.5l5.67,5.56ZM201.28,106V99h-5.56V77h5.56V69.87h-17.5L174.06,91.2l-10-21.33H146.25V77h5.35V99h-5.35v7h18.36V99h-5.13V85.37L169.58,106h5.83l9.83-20.47V99H180v7Z"/><path class="cls-3" d="M259.27,112.43h-22l-4.21-4.22v4.22H215.75L210,106.54v-8.1h5.13l11.45-29h10.2l7.62,7.67L253,98.44h.54l5.77,5.94ZM253,106V99h-5l-11.5-29.11h-9.5L215.48,99h-4.92v7h16.69V99h-3.89l.87-2.38h11.44l.81,2.38h-4.42v7ZM233.3,89.8h-6.75l3.4-9.61Z"/><path class="cls-3" d="M313.43,102.71h-2.26l1.78,1.78v7.83H291.83L286,106.49v-3.78h-4.64l-5.83-5.84V90.45l19.38-21.06h7.35l5.83,6V90.23l5.34,5.56Zm-6.31-6.38v-6.1h-5.35V69.87h-6.59L276.07,90.61v5.72h16.14V99h-5.67v7h20.14V99h-4.91V96.33Zm-14.85-6.1h-7.13l7.13-8Z"/></g></g></g></svg>