<svg id="Layer_1" data-name="Layer 1" xmlns="http://www.w3.org/2000/svg" width="364" height="542" viewBox="0 0 364 542"><defs><style>.cls-1,.cls-2,.cls-3{fill:none;}.cls-2{stroke:#2b458a;stroke-width:4px;}.cls-3{stroke:#182c5e;stroke-miterlimit:10;stroke-width:3px;}.cls-4{isolation:isolate;}.cls-5{fill:#182c5e;}</style></defs><g id="Group_25" data-name="Group 25"><g id="Rectangle_27" data-name="Rectangle 27"><rect class="cls-1" width="364" height="542"/><rect class="cls-2" x="2" y="2" width="360" height="538"/></g><g id="Group_8" data-name="Group 8"><path id="Path_29-2" data-name="Path 29-2" class="cls-3" d="M142.07,214.89c.91,5.4,4.36,9.78,7.75,13.78,4,4.7,8.2,9.39,13.5,12a33.46,33.46,0,0,0,11.72,3c6.35.65,12.91.47,18.89-2,10.86-4.52,18.14-15.77,24.36-26.69l-.13.26a257.14,257.14,0,0,1,31.77,8.18l13.23,4,31.6,9.58a65.07,65.07,0,0,1,11.57,4.32A572.69,572.69,0,0,0,295,301.24q-22.1-.17-44.21.49l-.51-.26c-1.5,6.27-1.34,12.87-1.18,19.36q1.65,65.61,1,131.25l-119.41,1.54c-6.9.09-13.87.17-20.62-1.44-3.19-30.41,1.26-61.15.51-91.75-.48-19.79-3.14-39.62-1.33-59.32h-.59a310,310,0,0,1-43.21-.44,235,235,0,0,0-12.54-58.79l.22-.27c31.06-2.12,58.9-20.11,88.41-27.33"/></g><g id="Tema_3" data-name="Tema 3" class="cls-4"><g class="cls-4"><path class="cls-5" d="M98.22,91.53H88.93l-4.59-4.59V98.76L90,104.43v8H67.17l-5.89-5.89v-8.1H66.9V91.53H58.69L53,85.64V69.39H92.28l5.94,5.94ZM91.85,85.1V69.87H53.56V85.1h8.26V77h5.62V99H61.82v7H83.59V99H78V77h5.46V85.1Z"/><path class="cls-5" d="M145.47,112.43H106.54l-5.84-5.89v-8.1h5.46V82.94l-5.46-5.51v-8H139l5.83,5.94V91.47h-3.35l4,3.89ZM139.1,106V90.12h-8.37V99H117.17V91h3.24v4.48h7.13V80h-7.13v4.42h-3.24V77h13v8h8.32V69.87H101.3V77h5.34V99H101.3v7Z"/><path class="cls-5" d="M210.49,112.43H187.86l-2.32-2.33-1.08,2.33h-6.75l-4.11-4.11v4.11H154.22l-5.78-5.89v-8.1h5.45V83.21l-5.45-5.78v-8h18.74l5.94,6,5.18,11.23,7.83-17.22h18.36l5.94,5.83v8.1h-5.61v15.5l5.67,5.56ZM204.06,106V99H198.5V77h5.56V69.87h-17.5L176.84,91.2l-10-21.33H149V77h5.35V99H149v7h18.36V99h-5.13V85.37L172.36,106h5.83L188,85.53V99h-5.24v7Z"/><path class="cls-5" d="M262.05,112.43h-22l-4.22-4.22v4.22H218.53l-5.78-5.89v-8.1h5.13l11.45-29h10.21l7.61,7.67,8.59,21.38h.54l5.77,5.94ZM255.74,106V99h-5l-11.5-29.11h-9.5L218.26,99h-4.91v7H230V99h-3.89L227,96.6h11.45l.81,2.38h-4.43v7ZM236.08,89.8h-6.75l3.4-9.61Z"/><path class="cls-5" d="M295.7,112.86c-7.46,0-12.42-4.27-16.2-9.88a10.25,10.25,0,0,1-1.73-5.73A13.68,13.68,0,0,1,279,91.37L288,92.66l-8.86-9A8.64,8.64,0,0,1,278,78.62c0-5.78,7.08-9.56,13.88-9.56a20.07,20.07,0,0,1,11.77,3.35c4.59,3,8.27,5.83,8.27,11.56a7.07,7.07,0,0,1-4.92,6.8c2.81,2,6,5,6,9.83C313,107,306.87,112.86,295.7,112.86ZM300.93,87c3-1.4,5.46-3.89,5.46-7.83,0-6.37-7.08-9.61-14.53-9.61-6.75,0-13.39,3.73-13.39,9.07a9,9,0,0,0,.92,4.48l7.45-1.35a8.15,8.15,0,0,1-.38-2c0-3.3,2.22-3.73,5.19-3.73,3.13,0,4.69,1.67,4.69,4.37,0,2.43-2,3.89-5.5,3.89h-3.68v6.27h4.22c2.59,0,5.67,1.13,5.67,4.69s-2.06,4.92-5.08,4.92c-3.35,0-4.81-1.68-4.81-4.21a7.65,7.65,0,0,1,.49-2.81L279.28,92a13.29,13.29,0,0,0-1,5.29c0,5.94,5.19,9.72,13.34,9.72,8.64,0,15.39-4.32,15.39-11.66A9,9,0,0,0,300.93,87Zm-6.37,9.88h-2.05a6.72,6.72,0,0,0-.11.92,4.27,4.27,0,0,0,.49,1.89c2.1-.38,2.91-1.13,3.45-2.75A9.91,9.91,0,0,0,294.56,96.87Z"/></g></g></g></svg>